<?xml version="1.0" encoding="UTF-8"?>
<svg version="1.1" viewBox="0 0 1600 1600" width="111" height="111" xmlns="http://www.w3.org/2000/svg">
<path transform="translate(1552 300)" d="m0 0c1.09-0.0091 2.19-0.0182 3.32-0.0276 1.89-0.0172 3.77-0.042 5.66-0.0775 4.53-0.0361 6.95 0.438 11.3 2.18v976c-389 0.0808-389 0.0808-537 0.0963-2.08 2.19e-4 -4.17 4.38e-4 -6.25 6.57e-4 -1.04 1.1e-4 -2.09 2.2e-4 -3.16 3.33e-4 -36.9 0.00388-73.8 0.0079-111 0.0121-3.52 4.04e-4 -7.04 8.04e-4 -10.6 0.0012-54 0.00613-108 0.0139-162 0.0267-1.16 2.74e-4 -2.32 5.48e-4 -3.52 8.3e-4 -18.7 0.00442-37.4 0.00899-56.2 0.0136-53.9 0.0132-108 0.0254-162 0.0305-1.66 1.61e-4 -1.66 1.61e-4 -3.36 3.24e-4 -24.3 0.00233-48.6 0.00412-72.9 0.0054-9.78 5.23e-4 -19.6 0.00112-29.3 0.00175-1.07 6.69e-5 -2.14 1.34e-4 -3.24 2.03e-4 -34.5 0.0022-69.1 0.0107-104 0.0226-34.8 0.0119-69.5 0.0176-104 0.0147-4.8-4.06e-4 -9.59-7.41e-4 -14.4-0.00103-0.94-5.98e-5 -1.88-1.2e-4 -2.85-1.81e-4 -14.9-7.63e-4 -29.9 0.00522-44.8 0.014-14.7 0.00846-29.3 0.00988-44 0.00364-8.61-0.00345-17.2-0.00133-25.8 0.00877-5.7 0.00615-11.4 0.00517-17.1-0.00183-3.24-0.00378-6.48-0.00323-9.72 0.00387-3.47 0.00712-6.94 0.00216-10.4-0.00607-1.01 0.00502-2.03 0.01-3.08 0.0152-0.915-0.00471-1.83-0.00941-2.77-0.0143-0.792 1.28e-4 -1.58 2.56e-4 -2.4 3.88e-4 -1.92-0.25-1.92-0.25-3.92-2.25-0.25-2.81-0.25-2.81-0.251-6.49-0.0028-0.678-0.00561-1.36-0.0085-2.05-0.00703-2.3 3.47e-4 -4.6 0.00751-6.9-0.00208-1.66-0.00504-3.32-0.00881-4.98-0.00785-4.6-0.0031-9.21 0.00356-13.8 0.00504-4.99-0.00143-9.99-0.00649-15-0.00725-8.76-0.00699-17.5-0.00191-26.3 0.00754-13 0.00371-26.1-0.00242-39.1-0.00994-21.9-0.0103-43.8-0.00485-65.8 1.66e-4 -0.668 3.31e-4 -1.34 5.02e-4 -2.02 1.66e-4 -0.669 3.32e-4 -1.34 5.03e-4 -2.03 0.00504-20.4 0.00635-40.7 0.00395-61.1-1.55e-4 -1.36-3.09e-4 -2.72-4.63e-4 -4.09-6.21e-4 -5.47-0.00126-10.9-0.00192-16.4-0.00183-15.3-0.00298-30.6-0.00357-45.9-2.73e-5 -0.697-5.46e-5 -1.39-8.27e-5 -2.11-8.19e-4 -22.2 0.00144-44.4 0.00578-66.6 1.4e-4 -0.721 2.81e-4 -1.44 4.26e-4 -2.18 0.00229-11.7 0.00473-23.4 0.00718-35.1 0.00971-46.4 0.00926-92.9-4.61e-4 -139-0.00244-11.7-0.00486-23.4-0.00714-35.1-2.11e-4 -1.08-2.11e-4 -1.08-4.27e-4 -2.18-0.00431-22.2-0.00614-44.4-0.00527-66.6 2.72e-5 -0.696 5.43e-5 -1.39 8.23e-5 -2.11 6.25e-4 -15.3 0.00189-30.6 0.00374-45.9 6.58e-4 -5.47 0.00128-10.9 0.0019-16.4 1.55e-4 -1.36 3.12e-4 -2.72 4.72e-4 -4.08 0.00239-20.4 3.49e-4 -40.7-0.0047-61.1-1.66e-4 -0.668-3.31e-4 -1.34-5.02e-4 -2.02-1.65e-4 -0.667-3.31e-4 -1.33-5.01e-4 -2.02-0.00551-22.5-0.0035-44.9 0.00706-67.4 0.00589-13 0.00623-25.9-0.00129-38.9-0.00446-8.64-0.00173-17.3 0.00701-25.9 0.00479-4.93 0.00632-9.87-8.12e-4 -14.8-0.00641-4.48-0.00379-8.96 0.00636-13.4 0.00203-1.62 6.37e-4 -3.24-0.00441-4.86-0.00633-2.18-5.54e-4 -4.37 0.00848-6.55 1.36e-4 -1.21 2.71e-4 -2.43 4.11e-4 -3.68 0.25-2.81 0.25-2.81 2.25-4.81 3.01-0.193 5.92-0.258 8.93-0.237 0.946-0.00136 1.89-0.00271 2.87-0.00411 3.23-0.00214 6.45 0.0102 9.68 0.0221 2.34 0.00138 4.69 0.00185 7.03 0.00151 5.18 0.00123 10.4 0.00874 15.5 0.0214 7.9 0.0191 15.8 0.0258 23.7 0.0301 12.9 0.00712 25.9 0.0213 38.8 0.0402 22.8 0.0332 45.5 0.0502 68.3 0.0624 1.44 7.74e-4 1.44 7.74e-4 2.91 0.00156 10 0.00537 20.1 0.0105 30.1 0.0152 9.58 0.00457 19.2 0.00957 28.7 0.0152 79.5 0.0462 159 0.0104 239-0.0543 1.14-9.24e-4 1.14-9.24e-4 2.3-0.00187 39.5-0.0321 79-0.0667 118-0.102 23.6-0.0213 47.2-0.0421 70.7-0.0623 1.63-0.0014 3.27-0.00281 4.9-0.00421 6.55-0.00563 13.1-0.0113 19.6-0.0169 18.2-0.0156 36.3-0.0312 54.5-0.047 1.23-0.00107 1.23-0.00107 2.49-0.00216 39.3-0.0341 78.6-0.0692 118-0.104 13.5-0.0121 27-0.0242 40.6-0.0363 0.839-7.51e-4 1.68-0.0015 2.54-0.00227 39.6-0.0354 79.3-0.0701 119-0.105 2.6-0.00226 5.2-0.00453 7.8-0.00679 20.7-0.018 41.3-0.036 62-0.0539 30.9-0.0268 61.8-0.0537 92.7-0.0806 2.45-0.00213 4.89-0.00426 7.34-0.00639 44.4-0.0387 88.8-0.0777 133-0.117 9.74-0.00866 19.5-0.0173 29.2-0.0259 2.19-0.00194 4.38-0.00388 6.57-0.00582 1.08-9.55e-4 1.08-9.55e-4 2.18-0.00193 0.716-6.35e-4 1.43-0.00127 2.17-0.00192 4.29-0.0038 8.58-0.0076 12.9-0.0114 16.4-0.0145 32.7-0.0291 49.1-0.0437 9.99-0.00895 20-0.0178 30-0.0267 5.68-0.00502 11.4-0.0101 17-0.0152 1.07-9.55e-4 2.13-0.00191 3.23-0.0029 2.09-0.0019 4.18-0.00388 6.26-0.00593 4.82-0.00461 9.65-0.00797 14.5-0.0079 7.5-7.95e-4 15-0.00838 22.5-0.0879zm-1250 68.1c-2.7 0.108-5.38 0.151-8.09 0.151-0.858 0.00423-1.72 0.00846-2.6 0.0128-2.9 0.0131-5.79 0.0191-8.69 0.0251-2.07 0.00794-4.13 0.0163-6.2 0.0251-4.46 0.0181-8.93 0.0331-13.4 0.0458-7.05 0.0202-14.1 0.0478-21.1 0.0767-16.2 0.0653-32.5 0.121-48.7 0.176-14.9 0.0508-29.8 0.104-44.6 0.165-7.02 0.0284-14 0.052-21 0.0719-4.36 0.0133-8.71 0.0308-13.1 0.0493-2.03 0.00779-4.06 0.0138-6.08 0.0181-2.76 0.00601-5.51 0.018-8.27 0.0316-0.814 2.96e-4 -1.63 5.92e-4 -2.47 8.97e-4 -3.61-0.314-3.61-0.314-6.62 1.15-0.098 1.83-0.124 3.67-0.124 5.5-0.00225 1.2-0.00449 2.41-0.00681 3.65 0.00257 1.36 0.00522 2.71 0.00796 4.07-7.39e-4 1.43-0.00192 2.86-0.0035 4.3-0.00309 3.97 1.23e-4 7.94 0.00428 11.9 0.00342 4.31 0.00107 8.61-5.77e-4 12.9-0.00208 7.56-4.2e-4 15.1 0.00364 22.7 0.00602 11.2 0.00634 22.5 0.00546 33.7-0.00132 18.9 0.00204 37.8 0.00802 56.7 0.00591 18.7 0.00976 37.5 0.0109 56.2 6.87e-5 1.16 1.37e-4 2.33 2.08e-4 3.52 3.38e-4 5.91 6.4e-4 11.8 9.27e-4 17.7 0.0021 41.9 0.00885 83.7 0.0183 126 0.00918 40.7 0.0163 81.4 0.0205 122 1.32e-4 1.25 2.63e-4 2.51 3.99e-4 3.8 0.00132 12.6 0.00259 25.2 0.00384 37.8 0.00254 25.6 0.00536 51.3 0.00835 76.9 1.37e-4 1.18 2.75e-4 2.36 4.16e-4 3.57 0.00921 78.8 0.0251 158 0.0419 236 3.47 1.73 7.48 1.13 11.3 1.12 0.982 0.00128 1.96 0.00256 2.98 0.00387 3.34 0.0031 6.67-0.00102 10-0.00502 2.41 7.39e-4 4.82 0.00192 7.23 0.0035 5.28 0.00244 10.6 0.00173 15.8-0.00166 7.9-0.00506 15.8-0.00438 23.7-0.00253 13.5 0.00297 26.9 0.00119 40.4-0.00314 13.6-0.00437 27.3-0.00657 40.9-0.0061 0.861 2.87e-5 1.72 5.74e-5 2.61 8.69e-5 4.39 1.56e-4 8.78 3.48e-4 13.2 5.53e-4 31.8 0.00141 63.6-0.00203 95.4-0.00802 31.5-0.00592 63-0.00977 94.5-0.0109 0.977-3.44e-5 1.95-6.88e-5 2.96-1.04e-4 8.93-3.13e-4 17.9-6.01e-4 26.8-8.58e-4 22.2-6.39e-4 44.4-0.0016 66.6-0.00278 1.52-8e-5 1.52-8e-5 3.06-1.62e-4 49.2-0.00262 98.4-0.00893 148-0.0155 17.1-0.00229 34.2-0.00457 51.2-0.00677 1.59-2.05e-4 1.59-2.05e-4 3.21-4.15e-4 49.2-0.00634 98.4-0.0101 148-0.0131 3.19-1.98e-4 6.39-3.97e-4 9.58-5.97e-4 21.2-0.00132 42.3-0.00259 63.5-0.00384 42.1-0.00248 84.2-0.00522 126-0.00814 2.01-1.39e-4 4.01-2.78e-4 6.02-4.17e-4 90.3-0.00625 181-0.0156 271-0.0263 1.27-1.5e-4 1.27-1.5e-4 2.56-3.03e-4 42.3-5e-3 84.6-0.0102 127-0.0156 0.773-9.94 1.14-19.8 1.11-29.7-6.67e-4 -1.43-8.89e-4 -2.85-7.12e-4 -4.28-7.91e-4 -3.89-0.00784-7.78-0.016-11.7-0.00775-4.24-0.00956-8.48-0.0122-12.7-0.00535-7.42-0.0145-14.8-0.0261-22.3-0.0173-11-0.0287-22.1-0.039-33.1-0.0186-19.7-0.043-39.4-0.0699-59.1-0.0235-17.2-0.0451-34.5-0.0648-51.7-0.00131-1.14-0.00262-2.29-0.00397-3.47-0.00532-4.64-0.0106-9.29-0.0159-13.9-0.0497-43.5-0.105-87.1-0.164-131-0.0518-38.7-0.0983-77.4-0.141-116-0.0474-43.5-0.098-87-0.154-130-0.00594-4.63-0.0119-9.26-0.0178-13.9-0.00219-1.71-0.00219-1.71-0.00443-3.46-0.0221-17.2-0.0417-34.5-0.0601-51.7-0.0209-19.6-0.0454-39.2-0.0746-58.8-0.0163-11-0.0298-22-0.0393-32.9-0.00666-7.32-0.0169-14.6-0.0302-22-0.00747-4.18-0.0133-8.36-0.0148-12.5-0.00141-3.79-0.00732-7.58-0.017-11.4-0.00396-2.02-0.00296-4.05-0.00183-6.07-0.00591-1.77-0.00591-1.77-0.0119-3.58-0.00132-1.03-0.00263-2.05-0.00399-3.11 0.129-2.26 0.129-2.26-1.13-3.29-2.58-0.0989-5.14-0.132-7.72-0.123-0.824-0.00115-1.65-0.00231-2.5-0.0035-2.8-0.00268-5.6 0.00187-8.41 0.00629-2.02-4.36e-4 -4.04-0.00131-6.06-0.00259-5.61-0.00225-11.2 0.00179-16.8 0.00678-6.08 0.00431-12.2 0.00285-18.2 0.00209-10.7-5.35e-4 -21.4 0.00262-32 0.00823-11.5 6e-3 -22.9 0.00981-34.4 0.0109-0.723 7.18e-5 -1.45 1.44e-4 -2.19 2.18e-4 -3.68 3.55e-4 -7.37 6.72e-4 -11.1 9.74e-4 -25.9 0.00218-51.8 0.00863-77.6 0.0176-27.3 0.00946-54.5 0.0165-81.8 0.0201-1.23 1.61e-4 -1.23 1.61e-4 -2.49 3.25e-4 -9.17 0.00119-18.3 0.0023-27.5 0.00338-17 2e-3 -33.9 0.00433-50.9 0.00674-0.849 1.2e-4 -1.7 2.41e-4 -2.57 3.64e-4 -40.4 0.00574-80.8 0.0145-121 0.024-2.68 6.28e-4 -5.37 0.00126-8.05 0.00188-27.8 0.0065-55.7 0.0132-83.5 0.0199-26.9 0.0065-53.9 0.0129-80.8 0.0192-2.68 6.27e-4 -5.36 0.00125-8.05 0.00188-40.4 0.00945-80.8 0.018-121 0.0237-1.27 1.81e-4 -1.27 1.81e-4 -2.57 3.66e-4 -16.9 0.00241-33.9 0.00468-50.8 0.00668-9.16 0.00108-18.3 0.00222-27.5 0.00341-1.23 1.6e-4 -1.23 1.6e-4 -2.48 3.23e-4 -27.3 0.00358-54.5 0.0112-81.8 0.0206-25.8 0.00893-51.6 0.0148-77.4 0.0169-3.67 3.03e-4 -7.35 6.44e-4 -11 0.00101-0.72 7.04e-5 -1.44 1.41e-4 -2.18 2.13e-4 -11.4 0.00121-22.9 0.00582-34.3 0.0118-11.2 0.00583-22.4 0.00806-33.7 0.00666-6.01-6.45e-4 -12 3.52e-4 -18 0.0057-5.46 0.00482-10.9 0.00514-16.4 0.00169-1.97-4.25e-4 -3.95 8.66e-4 -5.92 0.00398-2.66 0.00396-5.32 0.00188-7.98-0.00184-0.776 0.00263-1.55 0.00525-2.35 0.00796-5.27-0.0169-5.27-0.0169-7.49-1.13-2.19-0.0966-4.37-0.13-6.56-0.125-1.18-0.00258-2.35-0.00516-3.57-0.00781-2.77-0.195-2.77-0.195-3.87 1.13z" fill="#FDFDFD"/>
<path transform="translate(442 518)" d="m0 0c1.1-0.00557 2.21-0.0111 3.35-0.0169 1.21 0.00921 2.43 0.0184 3.67 0.0279 1.28-0.00204 2.55-0.00409 3.87-0.0062 3.5-0.00514 7 0.00841 10.5 0.0255 3.66 0.015 7.32 0.0139 11 0.0147 6.15 0.00369 12.3 0.0187 18.4 0.0412 7.9 0.0289 15.8 0.0392 23.7 0.0437 6.78 0.00397 13.6 0.0165 20.3 0.0303 2.18 0.0041 4.37 0.00703 6.55 0.0098 4.06 0.00579 8.12 0.0205 12.2 0.0363 1.82 0.00168 1.82 0.00168 3.69 0.00339 1.65 0.00857 1.65 0.00857 3.33 0.0173 0.961 0.00297 1.92 0.00595 2.91 0.00901 2.16 0.131 2.16 0.131 3.16 1.13 0.093 1.44 0.117 2.89 0.114 4.34-7.55e-5 0.921-1.51e-4 1.84-2.29e-4 2.79-0.00516 1-0.0103 2-0.0156 3.03-0.00212 1.53-0.00212 1.53-0.00429 3.09-0.00562 3.27-0.0182 6.54-0.0309 9.81-0.00501 2.21-0.00958 4.42-0.0137 6.63-0.0111 5.43-0.0278 10.9-0.0488 16.3-4.45 1.11-8.8 1.13-13.4 1.1-0.792-0.00141-1.58-0.00283-2.4-0.00429-2.52-0.00557-5.03-0.0181-7.55-0.0309-1.71-0.00502-3.42-0.00958-5.13-0.0137-4.18-0.011-8.37-0.0282-12.6-0.0488-0.0233 19.8-0.041 39.6-0.0518 59.4-0.00516 9.19-0.0122 18.4-0.0236 27.6-0.00995 8.01-0.0164 16-0.0186 24-0.00131 4.24-0.00439 8.49-0.0116 12.7-0.00676 3.99-0.00889 7.98-0.00738 12-2.76e-4 1.47-0.00228 2.94-0.0061 4.41-0.00493 2-0.00319 3.99-0.00105 5.99-9.22e-4 1.12-0.00184 2.24-0.00279 3.39-0.16 2.44-0.16 2.44 1.12 3.5 2.34 0.11 4.65 0.155 6.99 0.158 0.74 0.00494 1.48 0.00988 2.24 0.015 2.5 0.0155 5 0.0238 7.49 0.0321 1.78 0.00957 3.57 0.0196 5.35 0.03 4.86 0.0271 9.71 0.0481 14.6 0.068 5.07 0.0218 10.1 0.0492 15.2 0.0761 9.61 0.05 19.2 0.0949 28.8 0.138 13 0.0585 26 0.125 38.9 0.191 20.5 0.104 40.9 0.197 61.4 0.292-0.33-50.5-0.66-101-1-153-19.3-0.495-19.3-0.495-39-1-2.41-2.41-2.25-2.95-2.26-6.23-0.0063-0.874-0.0126-1.75-0.0191-2.65 0.00607-1.42 0.00607-1.42 0.0123-2.87-0.00191-0.969-0.00383-1.94-0.0058-2.94-0.00136-2.05 0.00234-4.1 0.0107-6.15 0.0107-3.15 1.07e-4 -6.29-0.0127-9.44 0.00132-1.99 0.00388-3.98 0.00781-5.97-0.00405-0.946-0.0081-1.89-0.0123-2.87 0.00946-1.31 0.00946-1.31 0.0191-2.65 0.00159-0.771 0.00318-1.54 0.00482-2.34 0.254-1.9 0.254-1.9 2.25-3.9 2.29-0.252 2.29-0.252 5.2-0.254 1.1-0.00564 2.2-0.0113 3.34-0.0171 1.21 0.00405 2.43 0.0081 3.68 0.0123 1.91-0.00526 1.91-0.00526 3.86-0.0106 3.5-0.00914 7-0.00557 10.5 7.58e-4 3.66 0.00505 7.32 3.7e-4 11-0.00277 6.15-0.00364 12.3 0.00116 18.4 0.0107 7.11 0.0109 14.2 0.00736 21.3-0.00365 6.1-0.00907 12.2-0.0104 18.3-0.00512 3.65 0.00312 7.29 0.00352 10.9-0.00307 4.06-0.00683 8.13 0.00263 12.2 0.0138 1.82-0.00607 1.82-0.00607 3.68-0.0123 1.65 0.00846 1.65 0.00846 3.34 0.0171 0.962 7.54e-4 1.92 0.00151 2.91 0.00229 2.29 0.252 2.29 0.252 4.29 2.25 0.241 1.95 0.241 1.95 0.227 4.36-1.51e-4 0.901-3.02e-4 1.8-4.58e-4 2.73-0.0103 0.974-0.0206 1.95-0.0313 2.95-0.00424 1.49-0.00424 1.49-0.00858 3.02-0.0112 3.19-0.0363 6.38-0.0617 9.57-0.01 2.16-0.0192 4.32-0.0273 6.48-0.0221 5.3-0.0556 10.6-0.0977 15.9-12.9 3.23-26.7 1-40 1-0.33 117-0.66 234-1 354 11.5 0.33 23.1 0.66 35 1 1.98 0.66 3.96 1.32 6 2v45h-134c-1.15-2.29-1.13-3.59-1.15-6.14-0.00638-0.854-0.0128-1.71-0.0193-2.59-0.00167-1.39-0.00167-1.39-0.00337-2.8-0.00333-0.947-0.00666-1.89-0.0101-2.87-0.00507-2-0.00741-4.01-0.00725-6.01-0.00219-3.07-0.0204-6.15-0.0393-9.22-0.00293-1.94-0.00492-3.89-0.00586-5.83-0.00719-0.924-0.0144-1.85-0.0218-2.8 0.00308-0.854 0.00615-1.71 0.00932-2.59-0.00143-0.753-0.00285-1.51-0.00432-2.28 0.247-1.86 0.247-1.86 2.25-3.86 3.01-0.175 5.93-0.231 8.95-0.195 1.33 0.00424 1.33 0.00424 2.68 0.00858 2.83 0.0112 5.67 0.0363 8.5 0.0617 1.92 0.01 3.84 0.0192 5.75 0.0273 4.71 0.0221 9.41 0.0566 14.1 0.0977-0.107-19.9-0.22-39.9-0.339-59.8-0.0554-9.25-0.109-18.5-0.158-27.8-0.0428-8.06-0.0891-16.1-0.14-24.2-0.0266-4.27-0.0515-8.54-0.0722-12.8-0.0195-4.02-0.0437-8.03-0.0714-12-0.00939-1.48-0.0171-2.96-0.0229-4.43-0.00823-2.01-0.0231-4.02-0.0384-6.03-0.00645-1.13-0.0129-2.25-0.0196-3.42 0.145-2.45 0.145-2.45-1.14-3.51-2.1-0.0991-4.2-0.126-6.3-0.127-0.998-0.00234-0.998-0.00234-2.02-0.00473-2.25-0.00401-4.49-8.19e-4 -6.74 0.00232-1.6-0.00135-3.21-0.00313-4.81-0.00531-4.37-0.00458-8.75-0.00278-13.1 3.79e-4 -4.58 0.00253-9.16 1.85e-4 -13.7-0.00139-7.71-0.00182-15.4 5.85e-4 -23.1 0.00534-8.89 0.00542-17.8 0.0037-26.7-0.00183-7.64-0.00456-15.3-0.00517-22.9-0.00256-4.56 0.00155-9.11 0.00179-13.7-0.00154-4.3-0.00291-8.6-8.4e-4 -12.9 0.00489-1.57 0.00131-3.14 9.63e-4 -4.71-0.00126-13.7-0.185-13.7-0.185-27.3 1.13-2.26 1.84-2.26 1.84-2.25 4.57 5.45e-4 1.1 0.00109 2.19 0.00165 3.32-0.00419 1.26-0.00839 2.51-0.0127 3.8 0.00548 1.4 0.0112 2.8 0.017 4.2-0.00107 1.47-0.00301 2.93-0.00575 4.4-0.00486 3.99 0.00282 7.98 0.013 12 0.00876 4.17 0.00702 8.34 0.00664 12.5 9.37e-4 7 0.00963 14 0.0233 21 0.0157 8.1 0.021 16.2 0.0203 24.3-6.09e-4 7.78 0.00449 15.6 0.0128 23.3 0.00354 3.32 0.00536 6.64 0.00589 9.95 1e-3 3.9 0.00708 7.81 0.0172 11.7 0.00293 1.44 0.00415 2.87 0.00357 4.31-4.87e-4 1.95 0.00576 3.91 0.0124 5.86 0.00168 1.1 0.00335 2.19 0.00508 3.32-0.147 2.39-0.147 2.39 1.13 3.44 2.88 0.16 5.74 0.26 8.63 0.316 1.3 0.0312 1.3 0.0312 2.62 0.063 2.77 0.0656 5.54 0.124 8.31 0.183 1.87 0.0432 3.75 0.0868 5.62 0.131 4.6 0.107 9.21 0.209 13.8 0.307 7.01 14 1 31.3 1 47h-134c-1.13-2.26-1.14-3.52-1.16-6.03-0.00961-0.831-0.0192-1.66-0.0291-2.52-0.00425-0.899-0.0085-1.8-0.0129-2.72-0.0057-0.922-0.0114-1.84-0.0173-2.79-0.00945-1.95-0.016-3.91-0.0198-5.86-0.00972-2.99-0.0407-5.98-0.0723-8.97-0.00653-1.9-0.0118-3.79-0.0156-5.69-0.0123-0.897-0.0247-1.79-0.0374-2.72 3e-3 -0.834 6e-3 -1.67 0.00909-2.53-0.00365-0.733-0.00729-1.47-0.011-2.22 0.367-1.94 0.367-1.94 3.37-4.94h38c-0.33-117-0.66-234-1-354-12.5-0.33-25.1-0.66-38-1-2.38-2.38-2.25-2.89-2.27-6.13-0.00953-0.851-0.0191-1.7-0.0289-2.58 9.11e-4 -0.921 0.00182-1.84 0.00276-2.79-0.00429-0.944-0.00857-1.89-0.013-2.86-0.00575-2-0.00624-4-0.00191-6 0.00316-3.06-0.0203-6.13-0.0457-9.19-0.00227-1.94-0.00298-3.88-0.00195-5.82-0.0138-1.38-0.0138-1.38-0.0279-2.78 0.00623-0.854 0.0125-1.71 0.0189-2.59-6.29e-4 -0.751-0.00126-1.5-0.00191-2.28 0.925-4.9 4.26-5.35 8.7-5.35z" fill="#F98102"/>
<path transform="translate(29,311)" d="m0 0c0.66 0.33 1.32 0.66 2 1-0.33 0.66-0.66 1.32-1 2h2v3h2c0.33 2.97 0.66 5.94 1 9v-4-7h-2c0.33-0.66 0.66-1.32 1-2 0.99 0.33 1.98 0.66 3 1v3h2c0.66 4.29 1.32 8.58 2 13v-3h4v6h2v2h2c-0.33 2.64-0.66 5.28-1 8h-2v12h2v4h-2c-0.0172 77.5-0.0331 155-0.0423 233-1.38e-4 1.15-2.76e-4 2.3-4.18e-4 3.48-0.00299 25-0.00576 50-0.0083 74.9-0.00125 12.2-0.00254 24.5-0.00387 36.7-1.31e-4 1.22-2.62e-4 2.44-3.96e-4 3.69-0.00425 39.4-0.0118 78.9-0.021 118-0.00946 40.6-0.0156 81.1-0.0176 122-2.88e-4 5.74-6.14e-4 11.5-9.62e-4 17.2-6.74e-5 1.13-1.35e-4 2.26-2.04e-4 3.42-0.00118 18.1-0.0058 36.2-0.0118 54.3-0.00592 18.3-0.00813 36.5-0.00667 54.8 6.89e-4 9.87-2.01e-4 19.7-0.0057 29.6-0.0902 46.8-0.0902 46.8 0.501 93.5 0.0152 0.831 0.0304 1.66 0.046 2.52 0.0432 2.23 0.0995 4.46 0.162 6.69 0.0307 1.19 0.0614 2.38 0.093 3.6 0.309 2.88 0.959 4.45 2.32 6.95 0.117 2.58 0.139 5.05 0.0625 7.62-0.571 11.6-0.571 11.6 2.94 22.4 2.64 1.32 4.68 1.1 7.62 1.06l3.04-0.0273c0.771-0.0116 1.54-0.0232 2.34-0.0352v-5h1v5c12.2-0.33 24.4-0.66 37-1v-5h2v-3h2v9h16v-9h5l-1 9h11v-6h6v-3h2v3h5v6h21v-6h4v5c0.995-0.00222 1.99-0.00444 3.01-0.00673 9.4-0.0203 18.8-0.0353 28.2-0.0451 4.83-0.00521 9.66-0.0123 14.5-0.0236 4.67-0.0109 9.34-0.0169 14-0.0194 1.78-0.00184 3.55-0.00543 5.33-0.0109 2.5-0.00732 5-0.00826 7.5-0.0078 0.725-0.0036 1.45-0.00719 2.2-0.0109 5.14 0.0102 10.2 0.469 15.3 1.12v-6h13v5c3.3 0.33 6.6 0.66 10 1v-6h4v6h11v-6h3v6c1.03-0.0355 2.07-0.0711 3.13-0.108 3.88-0.132 7.76-0.254 11.6-0.375 1.67-0.0529 3.34-0.108 5.01-0.166 9.14-0.315 18.1-0.57 27.2 0.648v-6h8v6h6v-6h4v6h14v-6h5v6h16v-6h9v6h18v-6h1v6h7v-6h9v6h6v-6h5v6h13v-6h23v6h8v-6h13v6h6v-6h44v6h6v-6h485v6h6v-6h31v6c0.941-0.0838 1.88-0.168 2.85-0.254 1.87-0.153 1.87-0.153 3.77-0.309 1.23-0.104 2.46-0.209 3.73-0.316 3.4-0.113 6.32 0.188 9.65 0.879v-6h3v6h24v-6h8v5c12.9 0.33 25.7 0.66 39 1v-6h7v6h8v-6h8v6c1.13-0.186 2.27-0.371 3.44-0.562 4.64-0.598 8.96-0.13 13.6 0.562v-6h1v6c0.762-0.0838 1.52-0.168 2.31-0.254 6.46-0.637 12.3-0.709 18.7 0.254v-6h3v6h13v-6h11v6h6v-6h16v6h15v-6h5v6h31v-6h4v6c11.6-0.33 23.1-0.66 35-1 0.33-1.65 0.66-3.3 1-5h4v6h35v-6h3v6h7v-6h4v6h17v-7h-15v-3c2.6-0.027 5.21-0.0468 7.81-0.0625 0.738-0.00838 1.48-0.0168 2.24-0.0254 3.25-0.0147 5.85 0.0526 8.95 1.09v3h5v6h44c0.33-1.65 0.66-3.3 1-5h2v-11c-0.66-0.33-1.32-0.66-2-1 0.66-0.33 1.32-0.66 2-1 0.469-2.82 0.469-2.82 0.625-6.06 0.112-1.66 0.112-1.66 0.227-3.35 0.049-0.855 0.098-1.71 0.148-2.59 1.32 0.33 2.64 0.66 4 1-0.162 0.519-0.325 1.04-0.492 1.57-2.14 10.2-0.331 22.1 0.492 32.4 2.97 0.33 5.94 0.66 9 1v-3h2v-5h4l1-3h3v16h-4c0.33 1.65 0.66 3.3 1 5 0.99 0.33 1.98 0.66 3 1-0.99 0.33-1.98 0.66-3 1v3c2.73 0.908 4.62 1.18 7.45 1.32 0.848 0.0419 1.7 0.0838 2.57 0.127 1.32 0.059 1.32 0.059 2.67 0.119 0.893 0.0432 1.79 0.0864 2.71 0.131 2.2 0.106 4.4 0.208 6.61 0.307v1c-47 0.011-94 0.0215-141 0.0317-0.92 2e-4 -1.84 3.99e-4 -2.79 6.05e-4 -98.6 0.0214-197 0.0398-296 0.0523-2.19 2.79e-4 -4.38 5.58e-4 -6.57 8.37e-4 -45.9 0.00584-91.9 0.0113-138 0.0162-23.1 0.00249-46.1 0.00506-69.2 0.00771-3.48 3.98e-4 -6.96 7.95e-4 -10.4 0.00119-53.6 0.00612-107 0.0139-161 0.0267-1.15 2.74e-4 -2.31 5.48e-4 -3.49 8.3e-4 -18.6 0.00442-37.2 0.00899-55.8 0.0136-53.5 0.0132-107 0.0254-161 0.0305-1.1 1.07e-4 -2.2 2.14e-4 -3.33 3.24e-4 -24.1 0.00233-48.3 0.00412-72.4 0.0054-9.72 5.23e-4 -19.4 0.00112-29.1 0.00175-1.6 1e-4 -1.6 1e-4 -3.22 2.03e-4 -34.3 0.0022-68.6 0.0107-103 0.0226-34.5 0.0119-69.1 0.0176-104 0.0147-4.77-4.06e-4 -9.53-7.41e-4 -14.3-0.00103-0.934-5.98e-5 -1.87-1.2e-4 -2.83-1.81e-4 -14.8-7.63e-4 -29.7 0.00522-44.5 0.014-14.6 0.00846-29.1 0.00988-43.7 0.00364-8.55-0.00345-17.1-0.00133-25.7 0.00877-6.33 0.00687-12.7 0.00347-19-0.00415-2.56-0.00144-5.12 5.51e-4 -7.68 0.00619-3.45 0.00712-6.9 0.00216-10.3-0.00607-1.01 0.00502-2.02 0.01-3.06 0.0152-0.909-0.00471-1.82-0.00941-2.76-0.0143-1.18 1.92e-4 -1.18 1.92e-4 -2.38 3.88e-4 -1.91-0.25-1.91-0.25-3.91-2.25-0.249-2.72-0.249-2.72-0.248-6.26-0.00256-0.654-0.00511-1.31-0.00775-1.98-0.00618-2.22 0.00203-4.43 0.01-6.65-0.00148-1.6-0.00383-3.2-0.00699-4.81-0.00617-4.44 2.41e-4 -8.88 0.00856-13.3 0.00684-4.82 0.00213-9.63-0.00115-14.4-0.00416-8.45-8.42e-4 -16.9 0.00728-25.4 0.012-12.6 0.0127-25.1 0.0109-37.7-0.00263-21.1 0.00407-42.3 0.016-63.4 0.0118-20.9 0.0195-41.9 0.0217-62.8 1.37e-4 -1.3 2.75e-4 -2.6 4.17e-4 -3.94 6.77e-4 -6.6 0.00128-13.2 0.00185-19.8 0.00121-13.4 0.00306-26.9 0.0052-40.3 1.07e-4 -0.672 2.13e-4 -1.34 3.23e-4 -2.04 0.00525-32.7 0.0179-65.4 0.0311-98.1 0.00458-11.4 0.00913-22.7 0.0135-34.1 2.74e-4 -0.704 5.48e-4 -1.41 8.3e-4 -2.13 0.0127-32.7 0.0201-65.4 0.0262-98.1 3.96e-4 -2.12 7.95e-4 -4.25 0.00119-6.37 0.00264-14.1 0.00519-28.1 0.00768-42.2 0.00495-28 0.0104-56 0.0163-84 4.17e-4 -2 8.34e-4 -4 0.00125-6 0.0184-88.1 0.0501-176 0.0839-264h2c1.12 6.75 1.12 6.75 0 9h2c-0.167-0.716-0.335-1.43-0.508-2.17-0.493-2.84-0.522-5.26-0.371-8.13 0.0483-0.976 0.0967-1.95 0.146-2.96 0.0561-1.01 0.112-2.01 0.17-3.05 0.0522-1.03 0.104-2.05 0.158-3.11 0.129-2.53 0.264-5.05 0.404-7.58 0.99-0.33 1.98-0.66 3-1v-4h-2c0.33-1.32 0.66-2.64 1-4z" fill="#FCFCFC"/>
<path transform="translate(963 518)" d="m0 0c1.9-0.0129 1.9-0.0129 3.83-0.0261 1.41-0.00444 2.82-0.00873 4.23-0.0129 1.48-0.0079 2.96-0.0162 4.43-0.0248 4.86-0.0262 9.73-0.0415 14.6-0.0558 1.67-0.00536 3.35-0.0107 5.02-0.0161 6.96-0.0216 13.9-0.0404 20.9-0.0516 9.98-0.0162 20-0.0494 29.9-0.106 7.01-0.0387 14-0.0582 21-0.0635 4.19-0.00365 8.38-0.0157 12.6-0.0481 3.94-0.0301 7.89-0.0364 11.8-0.0246 1.45 2.21e-4 2.89-0.00809 4.34-0.0257 12.3-0.141 12.3-0.141 16.1 2.99 0.735 0.865 1.47 1.73 2.23 2.62 1.07 1.24 1.07 1.24 2.17 2.51 0.666 0.864 1.33 1.73 2.02 2.62 4.23 5.32 8.82 9.98 13.7 14.7 2.09 2.21 2.09 2.21 2.09 4.21h2c1.33 1.51 2.59 3.09 3.81 4.69 2.85 3.73 5.84 7.02 9.19 10.3 2.71 2.82 5.38 5.66 8.06 8.5 0.707 0.746 1.41 1.49 2.14 2.26 0.686 0.728 1.37 1.46 2.08 2.21 0.926 0.981 0.926 0.981 1.87 1.98 0.608 0.676 1.22 1.35 1.84 2.05 1.03 1.07 1.03 1.07 2.09 2.16 2.36 3.5 2.45 6.21 2.37 10.3 5.84e-4 0.732 0.00117 1.46 0.00177 2.22-0.00278 2.41-0.0338 4.82-0.0652 7.22-0.00746 1.67-0.0132 3.35-0.0172 5.02-0.0152 4.4-0.0545 8.8-0.0988 13.2-0.041 4.49-0.0592 8.98-0.0793 13.5-0.0428 8.81-0.111 17.6-0.195 26.4-6.09 0.0493-12.2 0.0857-18.3 0.11-2.07 0.0101-4.14 0.0237-6.22 0.041-2.97 0.0242-5.95 0.0356-8.92 0.0444-0.93 0.0103-1.86 0.0206-2.82 0.0313-1.29 2.27e-4 -1.29 2.27e-4 -2.61 4.58e-4 -0.759 0.00444-1.52 0.00888-2.3 0.0135-1.87-0.241-1.87-0.241-3.87-2.24-0.272-2.04-0.272-2.04-0.303-4.57-0.0166-0.948-0.0333-1.9-0.0504-2.87-0.0126-1.54-0.0126-1.54-0.0255-3.11-0.017-1.05-0.034-2.11-0.0515-3.19-0.0533-3.38-0.0935-6.75-0.132-10.1-0.0439-3.37-0.0907-6.74-0.143-10.1-0.0319-2.1-0.0588-4.2-0.0802-6.3-0.0135-0.954-0.027-1.91-0.0409-2.89-0.00951-0.838-0.019-1.68-0.0288-2.54-0.14-2.22-0.531-4.16-1.14-6.29h-2v-2c-0.99-0.33-1.98-0.66-3-1-1.54-1.54-1.54-1.54-3.18-3.52-4.49-5.29-9.26-10.3-14-15.3-2.98-3.14-5.92-6.28-8.65-9.64-1.88-2.58-1.88-2.58-4.13-3.54-1.42-0.1-2.84-0.139-4.26-0.147-0.894-0.00716-1.79-0.0143-2.71-0.0217-0.984-0.00269-1.97-0.00538-2.98-0.00815-1.03-0.00657-2.07-0.0131-3.13-0.0199-3.43-0.0198-6.87-0.0314-10.3-0.0414-1.17-0.00408-2.34-0.00815-3.55-0.0124-6.2-0.0209-12.4-0.0352-18.6-0.0445-6.41-0.0111-12.8-0.0455-19.2-0.0852-4.92-0.0261-9.84-0.0345-14.8-0.0381-2.36-0.00488-4.72-0.0165-7.09-0.035-3.31-0.0243-6.61-0.0234-9.92-0.0165-1.46-0.0192-1.46-0.0192-2.96-0.0388-5.83 0.0447-9.04 0.685-13.5 4.51-1.9 2.1-1.9 2.1-3.44 4.38-2.66 3.58-5.36 6.31-8.8 9.1-3.27 2.84-5.98 6.2-8.76 9.53-0.849 0.799-1.7 1.6-2.57 2.42-3.67 4.45-3.11 9.41-3.04 14.9-0.00498 1.15-0.00996 2.3-0.0151 3.48-0.00874 3.18 0.00491 6.36 0.0281 9.55 0.0196 3.44 0.0102 6.87 0.00441 10.3-0.00682 6.73 0.0128 13.5 0.0412 20.2 0.0318 7.83 0.0363 15.7 0.0392 23.5 0.00606 14 0.0352 27.9 0.0781 41.9 0.0416 13.6 0.0699 27.1 0.082 40.7 0.00112 1.25 0.00112 1.25 0.00227 2.53 0.00297 3.36 0.00591 6.72 0.00879 10.1 0.0127 14.5 0.0365 29 0.0616 43.4 0.00398 2.35 0.0077 4.69 0.0114 7.04 0.013 8.21 0.0294 16.4 0.055 24.6 0.0106 3.39 0.0197 6.79 0.0246 10.2 0.0062 3.68 0.0185 7.35 0.0326 11 4.98e-4 1.08 9.96e-4 2.16 0.00151 3.27 0.00507 0.983 0.0101 1.97 0.0154 2.98 0.00233 0.849 0.00466 1.7 0.00706 2.57 0.128 2.25 0.401 4.16 1.13 6.29 0.565 0.278 1.13 0.557 1.71 0.844 3.45 1.75 5.51 4.71 7.91 7.66 4.61 5.53 9.38 10.6 14.6 15.6 1.77 1.89 1.77 1.89 1.77 3.89 2.8 0.932 4.52 1.14 7.41 1.16 0.903 0.01 1.81 0.0201 2.74 0.0304 1.48 0.00875 1.48 0.00875 2.99 0.0177 1.04 0.00978 2.09 0.0196 3.16 0.0296 3.46 0.03 6.91 0.0513 10.4 0.0702 1.18 0.00657 2.36 0.0131 3.58 0.0199 6.25 0.0326 12.5 0.057 18.7 0.0765 5.17 0.0178 10.3 0.0527 15.5 0.103 6.24 0.0602 12.5 0.0909 18.7 0.101 2.38 0.00856 4.76 0.0274 7.13 0.0567 3.33 0.0389 6.66 0.04 9.99 0.0321 0.98 0.02 1.96 0.04 2.97 0.0606 5.92-0.0628 9.1-1.05 13.4-5.24 1.55-1.77 2.95-3.62 4.33-5.52h2c0.254-0.583 0.508-1.17 0.77-1.77 1.36-2.48 2.87-4.04 4.92-5.98 3.34-3.25 6.45-6.59 9.41-10.2 1.9-2.06 1.9-2.06 3.97-3.46 3.23-2.35 5.5-4.61 6.38-8.62 0.711-6.35 0.471-12.7 0.337-19.1-0.0149-2.07-0.0263-4.15-0.0343-6.22-0.0304-5.44-0.109-10.9-0.198-16.3-0.0821-5.56-0.118-11.1-0.159-16.7-0.0856-10.9-0.222-21.8-0.391-32.7-0.973 0.00444-1.95 0.00888-2.95 0.0135-9.15 0.0405-18.3 0.0705-27.5 0.0902-4.71 0.0105-9.41 0.0246-14.1 0.0473-4.54 0.0217-9.08 0.0337-13.6 0.0389-1.73 0.0037-3.47 0.0109-5.2 0.0217-2.42 0.0144-4.85 0.0165-7.27 0.0156-0.722 0.00719-1.44 0.0144-2.19 0.0218-4.97-0.0207-4.97-0.0207-7.2-2.25-0.247-1.86-0.247-1.86-0.243-4.14-0.00308-0.854-0.00615-1.71-0.00932-2.59 0.0108-1.39 0.0108-1.39 0.0218-2.8 4.58e-4 -0.947 9.16e-4 -1.89 0.00139-2.87 0.00302-2 0.0109-4.01 0.0233-6.01 0.0182-3.07 0.0205-6.15 0.0203-9.22 0.00492-1.94 0.0107-3.89 0.0176-5.83 0.00111-0.924 0.00223-1.85 0.00337-2.8 0.00638-0.854 0.0128-1.71 0.0193-2.59 0.00381-0.753 0.00762-1.51 0.0116-2.28 0.134-1.86 0.134-1.86 1.13-3.86 7.36-1.44 15.2-1.14 22.6-1.11 1.1-1.46e-4 2.21-2.92e-4 3.34-4.43e-4 3.61 6.91e-4 7.22 0.00844 10.8 0.0163 2.52 0.00187 5.04 0.00329 7.55 0.00429 5.92 0.00341 11.8 0.0113 17.8 0.0213 7.42 0.0123 14.8 0.0177 22.2 0.0232 13.2 0.0107 26.4 0.0275 39.6 0.0488 1.42 2.84 1.16 5.26 1.19 8.44 0.00791 0.669 0.0158 1.34 0.024 2.03 0.0252 2.25 0.043 4.51 0.0607 6.76 0.0161 1.61 0.0325 3.22 0.0491 4.83 0.145 14.7 0.22 29.4 0.279 44.2 0.0446 10.9 0.122 21.8 0.242 32.6 0.0815 7.65 0.125 15.3 0.14 23 0.0102 4.57 0.0374 9.14 0.106 13.7 0.0642 4.3 0.0808 8.61 0.0615 12.9 0.00115 1.58 0.0193 3.15 0.0561 4.72 0.264 11.9 0.264 11.9-3.38 16.6-2.66 2.38-2.66 2.38-5.31 4.31-2.65 1.96-4.38 3.98-6.33 6.62-2.51 3.38-5.12 6.34-8.19 9.25-2.48 2.42-4.83 4.79-7 7.5-2.16 2.71-4.55 5.05-7 7.5-0.905 1.1-1.8 2.2-2.69 3.31-0.763 0.887-1.53 1.77-2.31 2.69h-2c-0.268 0.639-0.536 1.28-0.812 1.94-1.19 2.06-1.19 2.06-4.19 3.06-0.718 1.31-1.38 2.65-2 4-3.22 4.96-6.39 9.24-12.2 10.9-3.89 0.376-7.72 0.442-11.6 0.395-1.49 0.0185-2.97 0.0413-4.46 0.0681-4.01 0.0592-8.02 0.0565-12 0.0402-4.21-0.00838-8.42 0.0344-12.6 0.0697-7.07 0.0514-14.1 0.0629-21.2 0.0501-8.16-0.0144-16.3 0.0314-24.5 0.11-7.87 0.0747-15.7 0.109-23.6 0.125-3.34 0.00718-6.68 0.0278-10 0.0592-3.94 0.0351-7.87 0.0348-11.8 0.00772-1.44-0.0044-2.88 0.00298-4.32 0.0234-12.2 0.16-12.2 0.16-17.4-4.31-1.1-1.17-2.18-2.36-3.22-3.58-0.737-0.725-1.47-1.45-2.23-2.2-0.571-0.612-1.14-1.22-1.73-1.85-0.651-0.694-1.3-1.39-1.97-2.1-0.66-0.712-1.32-1.42-2-2.16-0.694-0.743-1.39-1.49-2.1-2.25-4.48-4.8-8.9-9.64-13.3-14.6-1.66-1.89-1.66-1.89-3.43-3.52-1.27-1.37-1.27-1.37-1.27-3.37-0.86-0.356-0.86-0.356-1.74-0.719-2.75-1.56-4.37-3.39-6.45-5.78-1.17-1.34-1.17-1.34-2.37-2.7l-2.44-2.8c-1.58-1.75-3.16-3.5-4.75-5.25-1.43-1.57-2.84-3.16-4.25-4.75-1.28-1.17-1.28-1.17-2.59-2.36-3.88-4.73-3.1-10.5-3.05-16.4-0.00851-1.29-0.017-2.59-0.0258-3.92-0.0228-3.59-0.0144-7.17-8.61e-4 -10.8 0.00925-3.87-0.0102-7.74-0.026-11.6-0.0261-7.58-0.025-15.2-0.014-22.7 0.00856-6.16 0.00773-12.3 2.04e-4 -18.5-0.00105-0.877-0.00211-1.75-0.0032-2.66-0.00217-1.78-0.00436-3.56-0.00656-5.34-0.0194-16.7-0.00743-33.4 0.0148-50.1 0.0182-14.3 0.00735-28.7-0.0243-43-0.0368-16.6-0.0538-33.3-0.0406-49.9 0.00134-1.78 0.00265-3.55 0.00393-5.33 6.31e-4 -0.873 0.00126-1.75 0.00191-2.65 0.00303-6.15-0.00823-12.3-0.0252-18.5-0.0203-7.5-0.0195-15 0.00863-22.5 0.0138-3.83 0.0179-7.65-0.00395-11.5-0.0234-4.15-3.5e-4 -8.3 0.0274-12.4-0.0141-1.21-0.0281-2.42-0.0426-3.66 0.0726-5.39 0.156-9.13 3.73-13.3 1-0.965 2.02-1.91 3.07-2.83 0.606-0.704 1.21-1.41 1.84-2.13 4.91-5.65 10-11.1 15.2-16.5 5.55-5.86 10.9-11.9 16.1-18 2.5-2.92 5.13-5.63 7.88-8.31 5.66-5.52 5.66-5.52 10.9-11.4 3.24-3.91 5.13-3.69 10.1-3.72z" fill="#F98102"/>
<path transform="translate(392 1034)" d="m0 0c1.53 1.32e-4 1.53 1.32e-4 3.09 2.67e-4 1.18-0.00475 2.35-0.0095 3.57-0.0144 1.96 0.00745 1.96 0.00745 3.96 0.0151 1.4-0.00178 2.79-0.00444 4.19-0.0079 3.87-0.00701 7.74-0.00143 11.6 0.00606 4.2 0.00594 8.39 3.49e-4 12.6-0.00382 7.37-0.0057 14.7-0.00392 22.1 0.00269 11 0.00979 21.9 0.00819 32.9 0.00425 18.4-0.00629 36.8-0.00309 55.3 0.00559 18.3 0.0086 36.5 0.0135 54.8 0.0133 1.13-7.65e-6 2.27-1.53e-5 3.44-2.32e-5 4.6-4.09e-5 9.2-1.07e-4 13.8-2.06e-4 43.2-9.07e-4 86.4 0.00905 130 0.0244 38.4 0.0136 76.8 0.0199 115 0.0192 2.47-4.04e-5 4.93-8.08e-5 7.4-1.21e-4 1.22-2.04e-5 2.44-4.07e-5 3.69-6.17e-5 6.14-1.01e-4 12.3-1.91e-4 18.4-2.7e-4 1.21-1.67e-5 2.42-3.34e-5 3.67-5.06e-5 32.1-3.65e-4 64.1 0.00417 96.2 0.0104 1.14 2.2e-4 2.28 4.41e-4 3.45 6.67e-4 4.58 8.88e-4 9.17 0.00178 13.8 0.00269 16 0.00316 31.9 0.00467 47.9 0.00511 20.6 5.96e-4 41.2 0.00457 61.7 0.0144 10.9 0.00513 21.8 0.00752 32.7 6e-3 7.26-7.31e-4 14.5 0.00215 21.8 0.00804 4.15 0.00327 8.3 0.00492 12.4 0.00224 3.77-0.0024 7.53-2.7e-4 11.3 0.00562 2.01 0.00193 4.02-0.00108 6.02-0.00424 1.76 0.00414 1.76 0.00414 3.57 0.00836 1.53 4.37e-4 1.53 4.37e-4 3.09 8.83e-4 2.4 0.126 2.4 0.126 4.4 1.13v28c-3.92 0.783-6.92 1.13-10.8 1.13-1.18 0.00276-2.36 0.00552-3.57 0.00836-1.29-0.00206-2.59-0.00411-3.92-0.00623-1.4 0.00135-2.79 0.00313-4.19 0.00531-3.85 0.00474-7.7 0.00323-11.6 7.22e-4 -4.18-0.00163-8.37 0.0025-12.5 0.00591-7.34 0.00516-14.7 0.00657-22 0.00554-10.9-0.00152-21.8 0.00263-32.7 0.00787-20.6 0.00968-41.2 0.0125-61.8 0.0131-15.9 4.59e-4 -31.8 0.00251-47.7 0.0057-4.58 8.97e-4 -9.15 0.00179-13.7 0.00267-1.14 2.21e-4 -2.27 4.42e-4 -3.45 6.7e-4 -32 0.00616-64 0.0101-96 0.00966-1.21-1.56e-5 -2.41-3.12e-5 -3.66-4.72e-5 -6.12-8.31e-5 -12.2-1.82e-4 -18.4-2.85e-4 -1.22-1.99e-5 -2.43-3.99e-5 -3.68-6.04e-5 -2.46-4.04e-5 -4.91-8.22e-5 -7.37-1.25e-4 -38.3-6.13e-4 -76.5 0.0069-115 0.0206-42.9 0.0153-85.9 0.024-129 0.023-4.57-7.46e-5 -9.15-1.23e-4 -13.7-1.54e-4 -1.13-1.17e-5 -2.25-2.33e-5 -3.41-3.53e-5 -18.2-3.08e-5 -36.3 0.00637-54.5 0.015-18.2 0.00846-36.5 0.00948-54.7 0.00289-10.8-0.00371-21.7-0.00182-32.5 0.00794-7.23 0.00596-14.5 0.00475-21.7-0.00247-4.13-0.00391-8.26-0.00457-12.4 0.00346-3.75 0.00722-7.5 0.00541-11.2-0.00392-2-0.00256-4 0.00479-6 0.0124-1.17-0.00475-2.34-0.0095-3.55-0.0144-1.02 8.82e-5 -2.03 1.76e-4 -3.08 2.67e-4 -2.39-0.25-2.39-0.25-4.39-2.25-0.259-2.58-0.259-2.58-0.266-5.81-0.00258-1.16-0.00516-2.32-0.00781-3.51 0.00773-1.21 0.0155-2.43 0.0234-3.68-0.00773-1.21-0.0155-2.43-0.0234-3.68 0.00258-1.16 0.00516-2.32 0.00781-3.51 0.00226-1.07 0.00451-2.13 0.00684-3.23 0.347-3.46 1.16-4.47 4.66-4.83z" fill="#FA8202"/>
<path transform="translate(1519,335)" d="m0 0h4c0.103 5.13 0.0359 9.95-1 15-1.65-0.33-3.3-0.66-5-1v-2c-3.63 0.33-7.26 0.66-11 1v3h6c-3 2-3 2-6 2v3c-1.44 0.169-2.87 0.335-4.31 0.5-0.801 0.0928-1.6 0.186-2.43 0.281-2.26 0.219-2.26 0.219-5.26 0.219-0.33 0.66-0.66 1.32-1 2v-2h-6c-0.33-2.64-0.66-5.28-1-8h-7v2h-20c-0.33-0.66-0.66-1.32-1-2h-7c-0.33 0.66-0.66 1.32-1 2h-4v2c-3.9 1.21-7.86 1.32-11.9 1.53-1.19 0.0636-1.19 0.0636-2.4 0.128-2.62 0.137-5.24 0.266-7.86 0.392-0.911 0.0444-1.82 0.0889-2.76 0.135-19.6 0.936-39.1 1.11-58.7 1.08-4.95-0.00519-9.9 0.00149-14.8 0.00649-8.62 0.00714-17.2 0.00706-25.9 0.00191-12.8-0.00764-25.6-0.00366-38.5 0.00242-22.9 0.0105-45.8 0.00964-68.7 0.00384-20-0.00505-40.1-0.00634-60.1-0.00395-1.35 1.55e-4 -2.69 3.09e-4 -4.04 4.63e-4 -5.41 6.21e-4 -10.8 0.00126-16.2 0.00192-15.1 0.00183-30.2 0.00297-45.4 0.00357-1.03 4.09e-5 -1.03 4.09e-5 -2.09 8.27e-5 -21.9 8.17e-4 -43.8-0.00143-65.7-0.00578-0.709-1.4e-4 -1.42-2.81e-4 -2.15-4.26e-4 -11.5-0.00229-23-0.00473-34.5-0.00718-45.7-0.00973-91.4-0.00925-137 4.61e-4 -11.5 0.00244-23.1 0.00486-34.6 0.00714-1.07 2.11e-4 -1.07 2.11e-4 -2.15 4.27e-4 -21.9 0.00431-43.8 0.00614-65.7 0.00527-0.687-2.72e-5 -1.37-5.43e-5 -2.08-8.23e-5 -15.1-6.25e-4 -30.2-0.00189-45.3-0.00374-5.4-6.58e-4 -10.8-0.00128-16.2-0.0019-1.34-1.55e-4 -2.69-3.12e-4 -4.03-4.72e-4 -20.7-0.00246-41.4-2.54e-5 -62.1 0.0052-22.8 0.00572-45.5 0.00429-68.3-0.00656-12.7-0.00587-25.5-0.00625-38.2 0.00129-8.51 0.00449-17 0.00169-25.5-0.00701-4.85-0.00476-9.69-0.00639-14.5 8.12e-4 -4.41 0.00649-8.83 0.00367-13.2-0.00636-1.58-2e-3 -3.16-7.13e-4 -4.74 0.00441-9.99 0.0301-19.6-0.686-29.5-2.26v-6c-2.64-0.33-5.28-0.66-8-1v-5c520-0.495 520-0.495 1051-1 0.33-0.66 0.66-1.32 1-2 2.65-0.594 5.29-0.742 8-1v2c4.28 1.06 8.43 1.12 12.8 1.06 0.693-0.00451 1.39-0.00902 2.1-0.0137 1.7-0.0117 3.39-0.0296 5.09-0.0488v3h13v-2h3v2h10v-9z" fill="#FCFCFC"/>
<path transform="translate(1508,388)" d="m0 0h2v4h3c0.33-1.32 0.66-2.64 1-4 0.289 0.639 0.578 1.28 0.875 1.94 0.953 2.21 0.953 2.21 3.12 3.06v6h-4c-0.33 1.65-0.66 3.3-1 5h12v765h2v9h-2v12c-1.32-1.65-2.64-3.3-4-5 0.99-0.33 1.98-0.66 3-1v-6h-4c0.0348 1.23 0.0348 1.23 0.0703 2.48 0.0271 1.62 0.0271 1.62 0.0547 3.27 0.0232 1.07 0.0464 2.13 0.0703 3.23-0.19 2.94-0.669 4.54-2.2 7.02h-3c-0.33 0.66-0.66 1.32-1 2-0.33-1.32-0.66-2.64-1-4v2h-3c-0.33 0.66-0.66 1.32-1 2-1.27-2.54-1.13-4.29-1.13-7.13-0.00276-1.1-0.00552-2.19-0.00836-3.32 0.00206-1.22 0.00411-2.43 0.00623-3.69-0.00175-1.29-0.00351-2.58-0.00531-3.9-0.00476-3.6-0.00322-7.21-7.22e-4 -10.8 0.00163-3.91-0.0025-7.82-0.00591-11.7-0.00517-6.86-0.00657-13.7-0.00554-20.6 0.00152-10.2-0.00263-20.4-0.00787-30.6-0.00969-19.3-0.0125-38.6-0.0131-57.9-4.59e-4 -14.9-0.00251-29.8-0.0057-44.7-8.98e-4 -4.28-0.00179-8.56-0.00267-12.8-2.21e-4 -1.06-4.42e-4 -2.13-6.7e-4 -3.22-0.00616-29.9-0.0101-59.9-0.00966-89.8 1.56e-5 -1.13 3.12e-5 -2.26 4.72e-5 -3.42 8.31e-5 -5.73 1.82e-4 -11.5 2.85e-4 -17.2 1.99e-5 -1.14 3.99e-5 -2.28 6.04e-5 -3.45 4.04e-5 -2.3 8.22e-5 -4.6 1.25e-4 -6.9 6.13e-4 -35.8-0.00689-71.6-0.0206-107-0.0154-40.2-0.024-80.4-0.023-121 7.46e-5 -4.28 1.23e-4 -8.57 1.54e-4 -12.8 1.17e-5 -1.05 2.33e-5 -2.11 3.53e-5 -3.2 3.08e-5 -17-0.00636-34-0.015-51-0.00846-17.1-0.00948-34.1-0.00289-51.2 0.0037-10.1 0.00184-20.3-0.00794-30.4-0.00598-6.77-0.00473-13.5 0.00247-20.3 0.0039-3.86 0.00461-7.73-0.00346-11.6-0.0086-4.16-0.00181-8.31 0.00656-12.5-0.00497-1.21-0.00994-2.41-0.0151-3.65 0.0247-5.76 0.284-10.7 2.26-16.1h-2v-3h2v-2h-2v-31z" fill="#FCFCFC"/>
<path transform="translate(79,417)" d="m0 0h3v11h2v-11h3v783c-0.495-1.49-0.495-1.49-1-3h-4c-0.33 0.66-0.66 1.32-1 2v-2h-2v3h2v2h-6v-16h-3v-2h3v-19c-0.99-0.33-1.98-0.66-3-1h3v-44h3v-11h-3v-32h3v-8h-3v-488h3v-6h-3v-46h3v-9h-3v-17h3v-6h-3v-8h3v-7h-3v-2h3v-6h-3v-5h3v-7h-3v-11h3v-14c-0.99-0.33-1.98-0.66-3-1v-8h4v-11z" fill="#FCFCFC"/>
<path transform="translate(127,336)" d="m0 0 1 1c2.57 0.0956 5.11 0.125 7.68 0.114 1.22 2.23e-4 1.22 2.23e-4 2.47 4.51e-4 2.75-6.99e-4 5.5-0.00856 8.25-0.0163 1.96-0.00192 3.92-0.00338 5.89-0.00443 4.24-0.00317 8.47-0.00945 12.7-0.0181 6.7-0.0135 13.4-0.0194 20.1-0.0241 15.4-0.0121 30.9-0.0341 46.3-0.0562 14.1-0.0202 28.3-0.0382 42.4-0.0482 6.66-0.00499 13.3-0.0149 20-0.0284 4.14-0.00745 8.29-0.0108 12.4-0.013 1.92-0.00187 3.85-0.00548 5.77-0.0109 2.62-0.0072 5.25-0.00825 7.87-0.00778 0.763-0.00359 1.53-0.00719 2.31-0.0109 3.76 0.00733 7.21 0.281 10.9 1.12 2.06 0.0791 4.12 0.108 6.18 0.0977 1.74-0.00483 1.74-0.00483 3.51-0.00977 1.2-0.00838 2.4-0.0168 3.63-0.0254 1.22-0.00451 2.44-0.00902 3.69-0.0137 3-0.0118 6-0.0282 9-0.0488-0.33 0.99-0.66 1.98-1 3h-4v5c-2.35-0.142-4.71-0.289-7.06-0.438-1.31-0.0812-2.62-0.162-3.97-0.246-3.7-0.295-7.3-0.749-11-1.32v2h-18v-2h-180c-0.33 2.64-0.66 5.28-1 8 3.3 0.33 6.6 0.66 10 1 0.495 1.98 0.495 1.98 1 4h-22v2c-1.71 0.0274-3.42 0.0466-5.12 0.0625-0.951 0.0116-1.9 0.0232-2.88 0.0352-2.99-0.0977-2.99-0.0977-5.65-0.566-4.89-0.776-9.78-0.899-14.7-1.09-1.02-0.0432-2.04-0.0864-3.1-0.131-2.51-0.106-5.02-0.208-7.53-0.307v-4c1.98-0.33 3.96-0.66 6-1v-2c3.58-1.24 6.34-0.749 10 0-0.0206-1.11-0.0413-2.23-0.0625-3.38 0.0625-3.62 0.0625-3.62 1.06-5.62h5v-2h-6c0.33-0.99 0.66-1.98 1-3 0.885 0.00786 0.885 0.00786 1.79 0.0159 2.67 0.0208 5.35 0.0338 8.02 0.0466 1.39 0.0126 1.39 0.0126 2.81 0.0254 0.893 0.00322 1.79 0.00645 2.71 0.00977 0.822 0.00524 1.64 0.0105 2.49 0.0159 8.23-0.429 8.23-0.429 9.18-0.114z" fill="#FCFCFC"/>
<path transform="translate(190 352)" d="m0 0c1.13-0.00175 2.26-0.0035 3.43-0.00531 3.71-0.00437 7.43-0.00149 11.1 0.00189 2.63-6.76e-4 5.25-0.00165 7.88-0.0029 5.51-0.00181 11 5.59e-4 16.5 0.00534 5.58 0.00478 11.2 0.00487 16.7 0 53.3-0.0455 53.3-0.0455 79.5 0.779 10.3 0.32 20.6 0.435 30.9 0.414 0.727-0.00143 1.45-0.00286 2.2-0.00433 5.06-0.012 10.1-0.0341 15.2-0.0582 5.16-0.024 10.3-0.0441 15.5-0.0559 2-0.00628 4-0.0189 6-0.0317 8.75-0.0233 17.4 0.402 26.1 1.09v2c-13.9 0.33-27.7 0.66-42 1v2h-7v-2h-7v2c-3.29 0.0301-6.58 0.0472-9.88 0.0625-0.898 0.00838-1.8 0.0168-2.72 0.0254-5.18 0.0179-10.3-0.119-15.5-0.442-9.73-0.608-19.4-0.814-29.2-0.851-1.64-0.00962-3.28-0.0196-4.91-0.03-4.38-0.0267-8.77-0.0479-13.1-0.068-4.6-0.0221-9.21-0.0494-13.8-0.0761-8.69-0.0496-17.4-0.0947-26.1-0.138-9.91-0.0497-19.8-0.104-29.7-0.16-20.4-0.113-40.7-0.22-61.1-0.323v-2c9.94-3.39 20.6-3.15 31-3.13z" fill="#FCFCFC"/>
<path transform="translate(292,361)" d="m0 0h76c-0.99 0.33-1.98 0.66-3 1v2c-10.8 0.0989-21.6 0.137-32.4-0.572-8.42-0.528-16.8-0.746-25.3-0.991-1.14-0.0332-1.14-0.0332-2.3-0.0671-4.36-0.127-8.72-0.25-13.1-0.37v-1z" fill="#FCFCFC"/>
<path transform="translate(1495 1273)" d="m0 0c1.01-0.0122 2.03-0.0245 3.07-0.0371 0.981-0.00193 1.96-0.00387 2.97-0.00586 0.88-0.00411 1.76-0.00822 2.67-0.0125 2.82 0.27 4.97 1.08 7.54 2.24v2h-38c0.33-0.99 0.66-1.98 1-3 6.94-0.901 13.8-1.18 20.8-1.19z" fill="#FDFDFD"/>
<path transform="translate(75,402)" d="m0 0h2v3h3v-3h2v3h5c0.125 2.88 0.125 2.88 0 6-0.66 0.66-1.32 1.32-2 2 0.66 0.33 1.32 0.66 2 1v2h-9v-4c-0.99-0.33-1.98-0.66-3-1v-9z" fill="#FCFCFC"/>
<path transform="translate(1555,1249)" d="m0 0h4v8c0.66-0.99 1.32-1.98 2-3 0.33 1.32 0.66 2.64 1 4h3c0.33-1.32 0.66-2.64 1-4v6c0.66 0.33 1.32 0.66 2 1-2.64 0.33-5.28 0.66-8 1l1 1v2c0.99 0.33 1.98 0.66 3 1-3 1-3 1-5 1-0.33 0.99-0.66 1.98-1 3h-2c-1.17-2.35-1.12-3.74-1.1-6.35 0.00322-0.851 0.00645-1.7 0.00977-2.58 0.00838-0.889 0.0168-1.78 0.0254-2.7 0.00451-0.897 0.00902-1.79 0.0137-2.72 0.0118-2.22 0.0283-4.44 0.0488-6.66z" fill="#FCFCFC"/>
<path transform="translate(1495 1268)" d="m0 0c1.02-0.0122 2.05-0.0245 3.1-0.0371 0.984-0.00193 1.97-0.00387 2.98-0.00586 0.885-0.00411 1.77-0.00822 2.68-0.0125 2.58 0.258 4.21 0.943 6.42 2.24-12 1.03-23.9 1.11-36 1v-2c6.97-0.904 13.8-1.18 20.8-1.19z" fill="#FEFEFE"/>
<path transform="translate(130 361)" d="m0 0c1.35 0.00503 2.7 0.00959 4.05 0.0137 3.27 0.0117 6.55 0.0281 9.82 0.0488v1h-22v2c-11.5 0.185-11.5 0.185-17-1v-1c8.38-1.1 16.7-1.12 25.1-1.06z" fill="#FCFCFC"/>
<path transform="translate(1550,1245)" d="m0 0h4v14h-4v-14z" fill="#FCFCFC"/>
<path transform="translate(79,375)" d="m0 0c1.36 2.73 0.878 4.61 0.562 7.62-0.102 1-0.204 2.01-0.309 3.04-0.0838 0.771-0.168 1.54-0.254 2.34h-2v-3h-2v-2h-6v-2h6v-5c1.32-0.33 2.64-0.66 4-1z" fill="#FCFCFC"/>
<path transform="translate(25,1233)" d="m0 0h1c1.01 8.74 1.12 17.4 1.06 26.2-0.00503 1.35-0.00959 2.69-0.0137 4.04-0.0117 3.26-0.028 6.51-0.0488 9.77h-1c-0.0251-0.645-0.0501-1.29-0.0759-1.96-0.116-2.93-0.239-5.86-0.362-8.79-0.0393-1.02-0.0786-2.03-0.119-3.08-0.0419-0.98-0.0838-1.96-0.127-2.97-0.0367-0.901-0.0733-1.8-0.111-2.73-0.135-2.43-0.135-2.43-0.733-4.58-0.767-3.07-0.296-6.01-0.0352-9.14 0.102-1.26 0.204-2.53 0.309-3.83 0.0838-0.964 0.168-1.93 0.254-2.92z" fill="#FEFEFE"/>
<path transform="translate(1520,1190)" d="m0 0h2c0.33 7.92 0.66 15.8 1 24-0.66 0.33-1.32 0.66-2 1-0.754-3.35-1.12-6.43-1.1-9.86 0.00322-0.886 0.00645-1.77 0.00977-2.69 0.00838-0.912 0.0168-1.82 0.0254-2.76 0.00451-0.931 0.00902-1.86 0.0137-2.82 0.0117-2.29 0.0282-4.58 0.0488-6.87z" fill="#FCFCFC"/>
<path transform="translate(1490,1237)" d="m0 0h4v11h-4v-11z" fill="#FCFCFC"/>
<path transform="translate(22,1206)" d="m0 0h1v36h-1v-36z" fill="#FCFCFC"/>
<path transform="translate(84,375)" d="m0 0c1.25 2.49 1.14 4.24 1 7-0.33 0.66-0.66 1.32-1 2v4h-2c-1.81-4.46-2.12-7.31-1-12 0.99-0.33 1.98-0.66 3-1z" fill="#FCFCFC"/>
<path transform="translate(1421,347)" d="m0 0h6v6h-6v-6z" fill="#FEFEFE"/>
<path transform="translate(1520,439)" d="m0 0h4v8h-3c-0.33 0.66-0.66 1.32-1 2v-10z" fill="#FDFDFD"/>
<path transform="translate(1524,415)" d="m0 0v9h-4v-8c3-1 3-1 4-1z" fill="#FEFEFE"/>
<path transform="translate(369,338)" d="m0 0h5v3c-1.32 0.33-2.64 0.66-4 1v4h-3v-4h2v-4z" fill="#FCFCFC"/>
<path transform="translate(303,368)" d="m0 0h13v1h-13v-1z" fill="#030303"/>
</svg>
