<svg width="325" height="69" viewBox="0 0 325 69" fill="none" xmlns="http://www.w3.org/2000/svg">
<path d="M50.6823 10.9887L50.6823 10.9887L50.6951 10.9947C52.1771 11.6916 53.2725 12.8195 53.9741 14.3269L53.9742 14.3268L53.9781 14.3355L55.1716 16.9643C55.1722 16.9654 55.1727 16.9665 55.1732 16.9676C55.4717 17.6109 55.9406 18.2406 56.6118 18.8565L56.6175 18.8618L56.6231 18.8671C57.2657 19.4755 58.0362 19.9993 58.9437 20.4345C60.0897 20.9734 61.1778 21.2284 62.2168 21.2284C62.7868 21.2284 63.342 21.1561 63.8881 21.0115L63.8969 21.0092L63.9058 21.007L66.8005 20.2973C67.3137 20.1599 67.8461 20.0878 68.3905 20.0878C69.4878 20.0878 70.5987 20.3726 71.7157 20.8926C73.384 21.6602 74.6512 22.7843 75.4457 24.2855L76.966 27.0867C77.8434 28.6441 78.0314 30.2768 77.4752 31.9161L77.4752 31.9161L77.4714 31.927C76.8817 33.6008 75.7063 34.7277 74.0166 35.2241C74.0149 35.2246 74.0132 35.2251 74.0115 35.2256L70.9714 36.1496L70.9662 36.1511C69.3551 36.6312 68.2872 37.6272 67.6927 39.2136L67.6899 39.2212L67.6869 39.2288C66.9689 41.054 67.0243 42.8837 67.8848 44.7863C67.8851 44.7871 67.8855 44.7879 67.8858 44.7887L69.518 48.3456L69.5189 48.3475C70.3414 50.1503 70.5154 52.073 70.0584 54.0773L70.0344 54.1828L69.9883 54.2806C69.1698 56.0209 67.8833 57.3828 66.1596 58.3589L66.0934 58.3964L66.0222 58.4234L62.4647 59.776L62.4047 59.7989L62.3422 59.8138C61.472 60.0222 60.6195 60.1276 59.786 60.1276C58.5622 60.1276 57.3489 59.8864 56.1518 59.4159L56.0659 59.3821L55.9877 59.3332C54.0771 58.1396 52.7249 56.5603 51.9871 54.6001C51.987 54.6 51.987 54.5999 51.987 54.5998L50.5347 50.7549L50.5347 50.7549L50.5325 50.7489C49.7605 48.6647 49.7095 46.6945 50.5252 44.9248L50.5252 44.9248L50.527 44.921C51.4216 43.0016 52.9174 41.7133 54.9557 41.1113L58.3605 40.0453L58.3645 40.0441C60.1789 39.4843 61.3608 38.4162 62.0145 36.8162C62.6273 35.2482 62.5644 33.5999 61.7461 31.8023L60.3328 28.7794L60.3322 28.7782C59.5353 27.0677 58.2921 25.827 56.5652 25.0215L56.5652 25.0215L56.5555 25.0169C55.3964 24.4611 54.278 24.1942 53.1916 24.1914C52.6189 24.212 52.0262 24.2962 51.4159 24.4461L51.4135 24.4467L48.1822 25.2317L48.1822 25.2317L48.1743 25.2335C47.4992 25.3917 46.83 25.4714 46.1675 25.4714C44.9832 25.4714 43.8212 25.1828 42.6866 24.6281C41.0632 23.8707 39.9203 22.6105 39.277 20.9075C39.277 20.9073 39.2769 20.9071 39.2768 20.9069L38.2216 18.1317L38.2215 18.1317L38.218 18.1223C37.623 16.5087 37.6913 14.9584 38.5728 13.5987L38.5735 13.5976C39.4031 12.3214 40.6056 11.5308 42.117 11.2403C42.3404 11.1918 42.5612 11.1518 42.782 11.1251L45.8097 10.537C46.0213 10.4711 46.2203 10.4188 46.4013 10.3852C46.7852 10.2994 47.1675 10.2599 47.5458 10.2599C48.582 10.2599 49.6304 10.512 50.6823 10.9887Z" fill="#00ACDD" stroke="white" stroke-width="2"/>
<path d="M46.0565 25.5757H46.0707L46.0849 25.5761C46.7579 25.5952 47.4634 25.5134 48.2026 25.3215L48.2084 25.32L51.4296 24.504C52.0176 24.3421 52.6116 24.2565 53.2122 24.2565H53.2251L53.238 24.2568C54.3832 24.2864 55.5223 24.5715 56.6485 25.0991C58.4053 25.9189 59.6974 27.1348 60.4398 28.7585L60.4418 28.763L61.8201 31.8176C62.6193 33.5038 62.6415 35.2473 61.9023 36.9751L61.8997 36.9811C61.1319 38.7439 59.8039 39.9335 57.9706 40.4954L57.9671 40.4964L54.554 41.5287L54.554 41.5288L54.5426 41.5321C52.5061 42.1218 51.1087 43.3025 50.2668 45.093L50.2651 45.0965C49.8143 46.0456 49.5844 47.0009 49.565 47.9657L49.565 47.969C49.5423 48.9364 49.7312 50.0117 50.1578 51.2005C50.1581 51.2012 50.1584 51.202 50.1586 51.2027L51.5725 55.0827L51.5728 55.0836C52.2877 57.0516 52.2733 59.1409 51.5865 61.3165L51.5466 61.4429L51.4751 61.5546C50.2092 63.5322 48.6362 65.0466 46.7494 66.0635L46.6903 66.0953L46.6274 66.119L42.5624 67.6499L42.5055 67.6714L42.4465 67.6857C41.5991 67.8921 40.7422 68.0004 39.8828 68.0004C38.5155 68.0004 37.1912 67.7346 35.9116 67.2145L35.8744 67.1994L35.8385 67.1813C33.6585 66.0839 32.2171 64.3514 31.5847 62.0269C31.5846 62.0265 31.5845 62.0261 31.5844 62.0258L30.4224 57.7947C30.4222 57.7939 30.422 57.7932 30.4218 57.7924C29.758 55.4151 29.9988 53.2369 31.2617 51.3686C32.4131 49.3413 34.0423 47.9706 36.1401 47.3455L39.9823 46.1348L39.9864 46.1336C42.2856 45.4198 43.8122 44.1573 44.6883 42.3737L44.6883 42.3737L44.6911 42.3682C45.1713 41.4056 45.4477 40.4508 45.5337 39.5001C45.5938 38.521 45.4662 37.608 45.1561 36.7523L43.925 33.5208L43.9226 33.5142C43.302 31.8501 42.0455 30.5179 40.0293 29.5404C38.8767 28.9852 37.7053 28.714 36.5069 28.714C35.7726 28.714 35.004 28.8106 34.2025 29.0051C34.2019 29.0053 34.2014 29.0054 34.2008 29.0055L30.5745 29.8947C30.5738 29.8948 30.5732 29.895 30.5726 29.8951C29.9123 30.0591 29.2502 30.1387 28.5915 30.1387C27.3474 30.1387 26.1222 29.841 24.9242 29.2742C23.0795 28.54 21.8626 27.1851 21.3434 25.2756L20.4748 22.2554L20.4721 22.246L20.4696 22.2367C19.9843 20.4171 20.3156 18.7571 21.5423 17.4148C22.5624 16.1068 23.8427 15.257 25.375 14.9444L25.4246 14.9343L25.4749 14.9292C25.63 14.9136 25.7759 14.8965 25.9238 14.8791C25.9611 14.8747 25.9984 14.8703 26.0361 14.8659L29.4388 14.1708C29.6885 14.0975 29.9276 14.0371 30.1566 13.987L30.1774 13.9825L30.1983 13.9788C30.6647 13.8974 31.1339 13.8557 31.6043 13.8557C32.6897 13.8557 33.7681 14.1218 34.8283 14.63C36.4031 15.3595 37.5036 16.5759 38.0994 18.2216L39.1154 21.0255C39.7447 22.664 40.8966 23.9155 42.6454 24.785C43.7746 25.3162 44.9122 25.5757 46.0565 25.5757Z" fill="#0F3C84" stroke="white" stroke-width="2"/>
<path d="M30.1547 1.57805L30.2883 1.61895L30.4055 1.6949C31.8475 2.62876 32.9008 3.71933 33.3461 5.0115L34.25 7.45747L34.2503 7.45844C34.7758 8.88504 34.5965 10.3301 33.821 11.7129L33.7699 11.8041L33.701 11.8828C32.5376 13.2108 31.0817 14.0495 29.361 14.3787L25.9894 15.0537L25.9876 15.0541C23.9006 15.4678 22.3698 16.3604 21.3086 17.6886L21.3068 17.6908C20.2514 19.004 19.9521 20.4422 20.4029 22.1093C20.403 22.1095 20.4031 22.1098 20.4031 22.11L21.2365 25.1716L21.2366 25.1716L21.2381 25.1773C21.6632 26.7764 22.7208 28.0362 24.5582 28.9509C25.7616 29.5194 27.1363 29.8129 28.6984 29.8129C29.3541 29.8129 30.0254 29.7589 30.7156 29.6537L34.3288 28.741C34.594 28.6687 34.828 28.6098 35.0203 28.5623C35.5402 28.4203 36.0741 28.3521 36.6138 28.3521C37.6967 28.3521 38.8512 28.6162 40.0693 29.0992L40.1432 29.1285L40.2116 29.1692C41.8597 30.1488 43.0297 31.4686 43.6536 33.1332L43.6536 33.1331L43.6577 33.1443L44.8523 36.4504C44.8526 36.4513 44.8529 36.4522 44.8533 36.453C45.5625 38.3815 45.5333 40.2345 44.657 41.9224L44.639 41.9571L44.6184 41.9902C43.4433 43.8776 41.8623 45.1549 39.88 45.7312L36.0749 46.9054L36.0749 46.9055L36.0633 46.9089C35.258 47.1468 34.4656 47.2687 33.6866 47.2699C32.3869 47.2977 31.1248 46.9731 29.9077 46.339L29.8736 46.3212L29.8409 46.3008C28.1437 45.2431 26.8741 43.7848 26.045 41.9452L26.0122 41.8725L25.9914 41.7955L25.0483 38.31C24.5219 36.4638 23.3687 35.0916 21.5005 34.1668C20.1273 33.4922 18.7543 33.1658 17.3664 33.1658C16.6334 33.1658 15.868 33.2621 15.062 33.4569L11.0367 34.4548L11.0288 34.4567L11.0209 34.4585C10.2198 34.6433 9.41806 34.7321 8.61717 34.7321C7.40221 34.7321 6.20401 34.5084 5.02806 34.0632L4.93454 34.0278L4.84988 33.9745C3.11568 32.8842 2.00094 31.4283 1.67411 29.6008L1.6737 29.5984L1.09548 26.3203L1.09543 26.3203L1.09372 26.31C0.778447 24.4066 1.26041 22.6907 2.52284 21.2524C3.85693 19.7052 5.55668 18.7244 7.5871 18.3261L7.58765 18.326L11.3942 17.5816C11.3952 17.5814 11.3963 17.5812 11.3973 17.581C13.6987 17.1141 15.3294 16.1769 16.4045 14.8362C17.4635 13.5148 17.7374 12.2073 17.3482 10.8176L17.3471 10.8134L16.6209 8.17632C16.6209 8.17626 16.6209 8.1762 16.6209 8.17614C16.2007 6.65429 16.6488 5.15211 17.6904 3.75171L17.7448 3.67849L17.8116 3.61633C18.9643 2.544 20.3866 1.88445 22.0389 1.61691L22.0445 1.61603L25.2299 1.11875C25.702 1.03683 26.1825 1.00001 26.6638 1.00001C27.7554 1.00001 28.9195 1.19997 30.1547 1.57805Z" fill="#96BC33" stroke="white" stroke-width="2"/>
<path d="M111.643 11.8418V17.4658H108.954V38.4515H111.643V44.075H99V38.4515H101.69V17.4658H99V11.8418H111.643ZM137.785 44.075H130.708V31.2884C130.708 27.7213 129.432 25.9373 126.882 25.9373C125.653 25.9373 124.643 26.4123 123.847 27.3617C123.06 28.3042 122.668 29.4973 122.668 30.9432V44.075H115.562V21.0613H122.668V24.7011H122.755C124.441 21.9028 126.905 20.5008 130.148 20.5008C135.239 20.5008 137.785 23.6618 137.785 29.9795V44.075Z" fill="white"/>
<path d="M157.339 43.8025C156.293 44.3558 154.711 44.6363 152.593 44.6363C147.587 44.6363 145.085 42.0405 145.085 36.8405V26.2972H141.359V21.0613H145.085V16.0993L152.176 14.0716V21.0613L157.339 21.0613V26.2972L152.176 26.2972V35.6031C152.176 38.0023 153.125 39.1997 155.024 39.1997C155.771 39.1997 156.541 38.9836 157.339 38.5517V43.8025Z" fill="white"/>
<path d="M181.989 34.597H166.988C167.225 37.934 169.332 39.6021 173.302 39.6021C175.834 39.6021 178.056 39.0055 179.976 37.8041V42.9243C177.847 44.0685 175.079 44.6363 171.676 44.6363C167.966 44.6363 165.082 43.6082 163.032 41.5434C160.979 39.4834 159.954 36.6103 159.954 32.9281C159.954 29.1132 161.062 26.0884 163.276 23.8525C165.492 21.619 168.218 20.5007 171.461 20.5007C174.816 20.5007 177.409 21.5004 179.242 23.4925C181.072 25.4882 181.989 28.1927 181.989 31.6052V34.597ZM175.417 30.2244C175.417 26.937 174.079 25.2904 171.403 25.2904C170.271 25.2904 169.289 25.7651 168.454 26.7144C167.62 27.6562 167.11 28.8252 166.93 30.2244H175.417Z" fill="white"/>
<path d="M186.223 44.075H193.328V10H186.223V44.075Z" fill="white"/>
<path d="M199.348 44.075H206.453V10H199.348V44.075Z" fill="white"/>
<path d="M216.068 17.4223C214.867 17.4223 213.885 17.0699 213.119 16.3583C212.35 15.6391 211.969 14.7685 211.969 13.7401C211.969 12.6761 212.35 11.8098 213.119 11.1371C213.885 10.4574 214.867 10.1158 216.068 10.1158C217.276 10.1158 218.258 10.4574 219.016 11.1371C219.771 11.8098 220.153 12.6761 220.153 13.7401C220.153 14.8153 219.771 15.6963 219.016 16.3867C218.258 17.0771 217.276 17.4223 216.068 17.4223ZM219.577 44.075H212.472V21.0613H219.577V44.075Z" fill="white"/>
<path d="M244.929 17.7539L233.551 17.7539V25.664L244.009 25.664V31.5621H233.551V44.075H226.288V11.8418H244.929V17.7539Z" fill="white"/>
<path d="M249.51 44.075H256.615V10H249.51V44.075Z" fill="white"/>
<path d="M273.596 44.6363C269.759 44.6363 266.742 43.5651 264.549 41.4144C262.362 39.268 261.27 36.3478 261.27 32.6548C261.27 28.85 262.405 25.873 264.678 23.7227C266.958 21.5758 270.036 20.5007 273.912 20.5007C277.738 20.5007 280.734 21.5758 282.902 23.7227C285.078 25.873 286.167 28.7137 286.167 32.2525C286.167 36.0781 285.045 39.0987 282.801 41.3133C280.564 43.5292 277.497 44.6363 273.596 44.6363ZM273.783 25.9373C272.103 25.9373 270.798 26.5202 269.87 27.6781C268.94 28.8288 268.476 30.461 268.476 32.5681C268.476 36.9914 270.259 39.1997 273.826 39.1997C277.228 39.1997 278.932 36.9267 278.932 32.3811C278.932 28.0877 277.213 25.9373 273.783 25.9373Z" fill="white"/>
<path d="M324.099 21.0613L317.468 44.075L310.004 44.075L306.609 30.5836C306.386 29.6914 306.263 28.7137 306.235 27.6497H306.091C305.995 28.8216 305.846 29.7706 305.646 30.4969L302.006 44.075H294.642L288.141 21.0613H295.375L298.54 36.0781C298.691 36.7797 298.806 37.6312 298.885 38.6384H299.014C299.091 37.5851 299.223 36.6966 299.417 35.9779L303.373 21.0613H310.147L313.701 36.0781C313.786 36.4521 313.887 37.3219 314.002 38.6816H314.161C314.236 37.8117 314.355 36.9407 314.52 36.0781L317.512 21.0613H324.099Z" fill="white"/>
<path d="M104.633 62V61.084C104.173 61.804 103.496 62.1641 102.603 62.1641C102.024 62.1641 101.491 62.0046 101.003 61.6855C100.52 61.3665 100.144 60.9222 99.875 60.3525C99.6107 59.7783 99.4785 59.1198 99.4785 58.377C99.4785 57.6523 99.5993 56.9961 99.8408 56.4082C100.082 55.8158 100.445 55.3623 100.928 55.0479C101.411 54.7334 101.951 54.5762 102.548 54.5762C102.985 54.5762 103.375 54.6696 103.717 54.8564C104.059 55.0387 104.337 55.278 104.551 55.5742V51.9785H105.774V62H104.633ZM100.743 58.377C100.743 59.3066 100.939 60.0016 101.331 60.4619C101.723 60.9222 102.186 61.1523 102.719 61.1523C103.257 61.1523 103.712 60.9336 104.086 60.4961C104.464 60.054 104.653 59.3818 104.653 58.4795C104.653 57.486 104.462 56.7568 104.079 56.292C103.696 55.8271 103.225 55.5947 102.664 55.5947C102.117 55.5947 101.659 55.818 101.29 56.2646C100.925 56.7113 100.743 57.4154 100.743 58.377ZM112.686 59.6621L113.957 59.8193C113.757 60.5622 113.385 61.1387 112.843 61.5488C112.3 61.959 111.608 62.1641 110.765 62.1641C109.703 62.1641 108.86 61.8382 108.235 61.1865C107.616 60.5303 107.306 59.612 107.306 58.4316C107.306 57.2103 107.62 56.2624 108.249 55.5879C108.878 54.9134 109.694 54.5762 110.696 54.5762C111.667 54.5762 112.46 54.9066 113.075 55.5674C113.69 56.2282 113.998 57.1579 113.998 58.3564C113.998 58.4294 113.996 58.5387 113.991 58.6846H108.577C108.623 59.4821 108.848 60.0928 109.254 60.5166C109.66 60.9404 110.165 61.1523 110.771 61.1523C111.223 61.1523 111.608 61.0339 111.927 60.7969C112.246 60.5599 112.499 60.1816 112.686 59.6621ZM108.646 57.6729H112.699C112.645 57.0622 112.49 56.6042 112.234 56.2988C111.842 55.8249 111.334 55.5879 110.71 55.5879C110.145 55.5879 109.669 55.777 109.281 56.1553C108.898 56.5335 108.687 57.0394 108.646 57.6729ZM115.509 62V54.7402H116.609V55.7588C116.837 55.4033 117.14 55.1185 117.519 54.9043C117.897 54.6855 118.327 54.5762 118.811 54.5762C119.348 54.5762 119.788 54.6878 120.13 54.9111C120.476 55.1344 120.72 55.4466 120.861 55.8477C121.436 55 122.183 54.5762 123.104 54.5762C123.824 54.5762 124.377 54.7767 124.765 55.1777C125.152 55.5742 125.346 56.1872 125.346 57.0166V62H124.122V57.4268C124.122 56.9346 124.081 56.5814 123.999 56.3672C123.922 56.1484 123.778 55.973 123.568 55.8408C123.359 55.7087 123.113 55.6426 122.83 55.6426C122.32 55.6426 121.896 55.8135 121.559 56.1553C121.221 56.4925 121.053 57.0348 121.053 57.7822V62H119.822V57.2832C119.822 56.7363 119.722 56.3262 119.521 56.0527C119.321 55.7793 118.993 55.6426 118.537 55.6426C118.191 55.6426 117.869 55.7337 117.573 55.916C117.282 56.0983 117.07 56.3649 116.938 56.7158C116.805 57.0667 116.739 57.5726 116.739 58.2334V62H115.509ZM126.713 58.3701C126.713 57.0257 127.087 56.0299 127.834 55.3828C128.458 54.8451 129.219 54.5762 130.117 54.5762C131.115 54.5762 131.931 54.9043 132.564 55.5605C133.198 56.2122 133.515 57.1146 133.515 58.2676C133.515 59.2018 133.373 59.9378 133.091 60.4756C132.813 61.0088 132.405 61.4235 131.867 61.7197C131.334 62.016 130.751 62.1641 130.117 62.1641C129.101 62.1641 128.278 61.8382 127.649 61.1865C127.025 60.5348 126.713 59.596 126.713 58.3701ZM127.978 58.3701C127.978 59.2998 128.18 59.9971 128.586 60.4619C128.992 60.9222 129.502 61.1523 130.117 61.1523C130.728 61.1523 131.236 60.9199 131.642 60.4551C132.047 59.9902 132.25 59.2816 132.25 58.3291C132.25 57.4313 132.045 56.7523 131.635 56.292C131.229 55.8271 130.723 55.5947 130.117 55.5947C129.502 55.5947 128.992 55.8249 128.586 56.2852C128.18 56.7454 127.978 57.4404 127.978 58.3701ZM139.701 59.3408L140.911 59.498C140.779 60.332 140.439 60.986 139.893 61.46C139.35 61.9294 138.683 62.1641 137.89 62.1641C136.896 62.1641 136.096 61.8405 135.49 61.1934C134.889 60.5417 134.588 59.6097 134.588 58.3975C134.588 57.6136 134.718 56.9277 134.978 56.3398C135.237 55.752 135.632 55.3122 136.16 55.0205C136.693 54.7243 137.272 54.5762 137.896 54.5762C138.685 54.5762 139.33 54.7767 139.831 55.1777C140.332 55.5742 140.654 56.1393 140.795 56.873L139.599 57.0576C139.485 56.57 139.282 56.2031 138.99 55.957C138.703 55.7109 138.354 55.5879 137.944 55.5879C137.325 55.5879 136.821 55.8112 136.434 56.2578C136.046 56.6999 135.853 57.4017 135.853 58.3633C135.853 59.3385 136.039 60.0472 136.413 60.4893C136.787 60.9313 137.274 61.1523 137.876 61.1523C138.359 61.1523 138.762 61.0042 139.086 60.708C139.41 60.4118 139.615 59.9561 139.701 59.3408ZM141.95 62V54.7402H143.058V55.8408C143.34 55.3258 143.6 54.9863 143.837 54.8223C144.078 54.6582 144.343 54.5762 144.63 54.5762C145.045 54.5762 145.466 54.7083 145.895 54.9727L145.471 56.1143C145.17 55.9365 144.869 55.8477 144.568 55.8477C144.299 55.8477 144.058 55.9297 143.844 56.0938C143.63 56.2533 143.477 56.4766 143.386 56.7637C143.249 57.2012 143.181 57.6797 143.181 58.1992V62H141.95ZM151.363 61.1045C150.908 61.4919 150.468 61.7653 150.044 61.9248C149.625 62.0843 149.174 62.1641 148.69 62.1641C147.893 62.1641 147.28 61.9704 146.852 61.583C146.423 61.1911 146.209 60.6921 146.209 60.0859C146.209 59.7305 146.289 59.4069 146.448 59.1152C146.612 58.819 146.824 58.582 147.084 58.4043C147.348 58.2266 147.645 58.0921 147.973 58.001C148.214 57.9372 148.579 57.8757 149.066 57.8164C150.06 57.6979 150.791 57.5566 151.261 57.3926C151.265 57.224 151.268 57.1169 151.268 57.0713C151.268 56.57 151.151 56.2168 150.919 56.0117C150.604 55.7337 150.137 55.5947 149.518 55.5947C148.939 55.5947 148.51 55.6973 148.232 55.9023C147.959 56.1029 147.756 56.4606 147.624 56.9756L146.421 56.8115C146.53 56.2965 146.71 55.8818 146.961 55.5674C147.212 55.2484 147.574 55.0046 148.048 54.8359C148.522 54.6628 149.071 54.5762 149.695 54.5762C150.315 54.5762 150.819 54.6491 151.206 54.7949C151.593 54.9408 151.878 55.1253 152.061 55.3486C152.243 55.5674 152.37 55.8454 152.443 56.1826C152.484 56.3923 152.505 56.7705 152.505 57.3174V58.958C152.505 60.1019 152.53 60.8265 152.58 61.1318C152.635 61.4326 152.74 61.722 152.895 62H151.609C151.482 61.7448 151.4 61.4463 151.363 61.1045ZM151.261 58.3564C150.814 58.5387 150.144 58.6937 149.251 58.8213C148.745 58.8942 148.387 58.9762 148.178 59.0674C147.968 59.1585 147.806 59.293 147.692 59.4707C147.578 59.6439 147.521 59.8376 147.521 60.0518C147.521 60.3799 147.645 60.6533 147.891 60.8721C148.141 61.0908 148.506 61.2002 148.984 61.2002C149.458 61.2002 149.88 61.0977 150.249 60.8926C150.618 60.6829 150.889 60.3981 151.062 60.0381C151.195 59.7601 151.261 59.3499 151.261 58.8076V58.3564ZM157.105 60.8994L157.283 61.9863C156.937 62.0592 156.627 62.0957 156.354 62.0957C155.907 62.0957 155.561 62.0251 155.314 61.8838C155.068 61.7425 154.895 61.5579 154.795 61.3301C154.695 61.0977 154.645 60.6123 154.645 59.874V55.6973H153.742V54.7402H154.645V52.9424L155.868 52.2041V54.7402H157.105V55.6973H155.868V59.9424C155.868 60.2933 155.889 60.5189 155.93 60.6191C155.975 60.7194 156.046 60.7992 156.142 60.8584C156.242 60.9176 156.383 60.9473 156.565 60.9473C156.702 60.9473 156.882 60.9313 157.105 60.8994ZM158.322 53.3936V51.9785H159.553V53.3936H158.322ZM158.322 62V54.7402H159.553V62H158.322ZM160.783 62V61.002L165.404 55.6973C164.88 55.7246 164.418 55.7383 164.017 55.7383H161.057V54.7402H166.99V55.5537L163.06 60.1611L162.301 61.002C162.852 60.9609 163.369 60.9404 163.853 60.9404H167.209V62H160.783ZM168.439 53.3936V51.9785H169.67V53.3936H168.439ZM168.439 62V54.7402H169.67V62H168.439ZM171.55 62V54.7402H172.657V55.7725C173.19 54.9749 173.961 54.5762 174.968 54.5762C175.405 54.5762 175.806 54.6559 176.171 54.8154C176.54 54.9704 176.816 55.1755 176.998 55.4307C177.18 55.6859 177.308 55.9889 177.381 56.3398C177.426 56.5677 177.449 56.9665 177.449 57.5361V62H176.219V57.584C176.219 57.0827 176.171 56.709 176.075 56.4629C175.979 56.2122 175.809 56.014 175.562 55.8682C175.321 55.7178 175.036 55.6426 174.708 55.6426C174.184 55.6426 173.73 55.8089 173.348 56.1416C172.969 56.4743 172.78 57.1055 172.78 58.0352V62H171.55ZM179.117 62.6016L180.313 62.7793C180.364 63.1484 180.503 63.4173 180.73 63.5859C181.036 63.8138 181.453 63.9277 181.981 63.9277C182.551 63.9277 182.991 63.8138 183.301 63.5859C183.611 63.3581 183.82 63.0391 183.93 62.6289C183.993 62.3783 184.023 61.8519 184.019 61.0498C183.481 61.6833 182.811 62 182.009 62C181.011 62 180.238 61.64 179.691 60.9199C179.145 60.1999 178.871 59.3363 178.871 58.3291C178.871 57.6364 178.996 56.9984 179.247 56.415C179.498 55.8271 179.86 55.3737 180.334 55.0547C180.812 54.7357 181.373 54.5762 182.016 54.5762C182.872 54.5762 183.579 54.9225 184.135 55.6152V54.7402H185.27V61.0156C185.27 62.1458 185.153 62.9456 184.921 63.415C184.693 63.889 184.328 64.2627 183.827 64.5361C183.33 64.8096 182.717 64.9463 181.988 64.9463C181.122 64.9463 180.423 64.7503 179.89 64.3584C179.356 63.971 179.099 63.3854 179.117 62.6016ZM180.136 58.2402C180.136 59.1927 180.325 59.8877 180.703 60.3252C181.081 60.7627 181.555 60.9814 182.125 60.9814C182.69 60.9814 183.164 60.765 183.547 60.332C183.93 59.8945 184.121 59.2109 184.121 58.2812C184.121 57.3926 183.923 56.7227 183.526 56.2715C183.134 55.8203 182.66 55.5947 182.104 55.5947C181.558 55.5947 181.093 55.818 180.71 56.2646C180.327 56.7067 180.136 57.3652 180.136 58.2402ZM195.77 61.1045C195.314 61.4919 194.874 61.7653 194.45 61.9248C194.031 62.0843 193.58 62.1641 193.097 62.1641C192.299 62.1641 191.686 61.9704 191.258 61.583C190.829 61.1911 190.615 60.6921 190.615 60.0859C190.615 59.7305 190.695 59.4069 190.854 59.1152C191.019 58.819 191.23 58.582 191.49 58.4043C191.755 58.2266 192.051 58.0921 192.379 58.001C192.62 57.9372 192.985 57.8757 193.473 57.8164C194.466 57.6979 195.198 57.5566 195.667 57.3926C195.672 57.224 195.674 57.1169 195.674 57.0713C195.674 56.57 195.558 56.2168 195.325 56.0117C195.011 55.7337 194.544 55.5947 193.924 55.5947C193.345 55.5947 192.917 55.6973 192.639 55.9023C192.365 56.1029 192.162 56.4606 192.03 56.9756L190.827 56.8115C190.937 56.2965 191.117 55.8818 191.367 55.5674C191.618 55.2484 191.98 55.0046 192.454 54.8359C192.928 54.6628 193.477 54.5762 194.102 54.5762C194.721 54.5762 195.225 54.6491 195.612 54.7949C196 54.9408 196.285 55.1253 196.467 55.3486C196.649 55.5674 196.777 55.8454 196.85 56.1826C196.891 56.3923 196.911 56.7705 196.911 57.3174V58.958C196.911 60.1019 196.936 60.8265 196.986 61.1318C197.041 61.4326 197.146 61.722 197.301 62H196.016C195.888 61.7448 195.806 61.4463 195.77 61.1045ZM195.667 58.3564C195.22 58.5387 194.55 58.6937 193.657 58.8213C193.151 58.8942 192.794 58.9762 192.584 59.0674C192.374 59.1585 192.213 59.293 192.099 59.4707C191.985 59.6439 191.928 59.8376 191.928 60.0518C191.928 60.3799 192.051 60.6533 192.297 60.8721C192.548 61.0908 192.912 61.2002 193.391 61.2002C193.865 61.2002 194.286 61.0977 194.655 60.8926C195.024 60.6829 195.296 60.3981 195.469 60.0381C195.601 59.7601 195.667 59.3499 195.667 58.8076V58.3564ZM203.562 59.3408L204.772 59.498C204.64 60.332 204.301 60.986 203.754 61.46C203.212 61.9294 202.544 62.1641 201.751 62.1641C200.757 62.1641 199.958 61.8405 199.352 61.1934C198.75 60.5417 198.449 59.6097 198.449 58.3975C198.449 57.6136 198.579 56.9277 198.839 56.3398C199.099 55.752 199.493 55.3122 200.021 55.0205C200.555 54.7243 201.133 54.5762 201.758 54.5762C202.546 54.5762 203.191 54.7767 203.692 55.1777C204.194 55.5742 204.515 56.1393 204.656 56.873L203.46 57.0576C203.346 56.57 203.143 56.2031 202.852 55.957C202.564 55.7109 202.216 55.5879 201.806 55.5879C201.186 55.5879 200.682 55.8112 200.295 56.2578C199.908 56.6999 199.714 57.4017 199.714 58.3633C199.714 59.3385 199.901 60.0472 200.274 60.4893C200.648 60.9313 201.136 61.1523 201.737 61.1523C202.22 61.1523 202.624 61.0042 202.947 60.708C203.271 60.4118 203.476 59.9561 203.562 59.3408ZM210.562 59.3408L211.772 59.498C211.64 60.332 211.301 60.986 210.754 61.46C210.212 61.9294 209.544 62.1641 208.751 62.1641C207.757 62.1641 206.958 61.8405 206.352 61.1934C205.75 60.5417 205.449 59.6097 205.449 58.3975C205.449 57.6136 205.579 56.9277 205.839 56.3398C206.099 55.752 206.493 55.3122 207.021 55.0205C207.555 54.7243 208.133 54.5762 208.758 54.5762C209.546 54.5762 210.191 54.7767 210.692 55.1777C211.194 55.5742 211.515 56.1393 211.656 56.873L210.46 57.0576C210.346 56.57 210.143 56.2031 209.852 55.957C209.564 55.7109 209.216 55.5879 208.806 55.5879C208.186 55.5879 207.682 55.8112 207.295 56.2578C206.908 56.6999 206.714 57.4017 206.714 58.3633C206.714 59.3385 206.901 60.0472 207.274 60.4893C207.648 60.9313 208.136 61.1523 208.737 61.1523C209.22 61.1523 209.624 61.0042 209.947 60.708C210.271 60.4118 210.476 59.9561 210.562 59.3408ZM217.795 59.6621L219.066 59.8193C218.866 60.5622 218.494 61.1387 217.952 61.5488C217.41 61.959 216.717 62.1641 215.874 62.1641C214.812 62.1641 213.969 61.8382 213.345 61.1865C212.725 60.5303 212.415 59.612 212.415 58.4316C212.415 57.2103 212.729 56.2624 213.358 55.5879C213.987 54.9134 214.803 54.5762 215.806 54.5762C216.776 54.5762 217.569 54.9066 218.185 55.5674C218.8 56.2282 219.107 57.1579 219.107 58.3564C219.107 58.4294 219.105 58.5387 219.101 58.6846H213.687C213.732 59.4821 213.958 60.0928 214.363 60.5166C214.769 60.9404 215.275 61.1523 215.881 61.1523C216.332 61.1523 216.717 61.0339 217.036 60.7969C217.355 60.5599 217.608 60.1816 217.795 59.6621ZM213.755 57.6729H217.809C217.754 57.0622 217.599 56.6042 217.344 56.2988C216.952 55.8249 216.444 55.5879 215.819 55.5879C215.254 55.5879 214.778 55.777 214.391 56.1553C214.008 56.5335 213.796 57.0394 213.755 57.6729ZM220.126 59.833L221.343 59.6416C221.411 60.1292 221.6 60.5029 221.91 60.7627C222.225 61.0225 222.662 61.1523 223.223 61.1523C223.788 61.1523 224.207 61.0384 224.48 60.8105C224.754 60.5781 224.891 60.307 224.891 59.9971C224.891 59.7191 224.77 59.5003 224.528 59.3408C224.36 59.2314 223.94 59.0924 223.271 58.9238C222.368 58.696 221.742 58.5 221.391 58.3359C221.044 58.1673 220.78 57.9372 220.598 57.6455C220.42 57.3493 220.331 57.0234 220.331 56.668C220.331 56.3444 220.404 56.0459 220.55 55.7725C220.7 55.4945 220.903 55.2643 221.158 55.082C221.35 54.9408 221.609 54.8223 221.938 54.7266C222.27 54.6263 222.626 54.5762 223.004 54.5762C223.574 54.5762 224.073 54.6582 224.501 54.8223C224.934 54.9863 225.253 55.2096 225.458 55.4922C225.663 55.7702 225.804 56.1439 225.882 56.6133L224.679 56.7773C224.624 56.4036 224.465 56.112 224.2 55.9023C223.94 55.6927 223.571 55.5879 223.093 55.5879C222.528 55.5879 222.124 55.6813 221.883 55.8682C221.641 56.055 221.521 56.2738 221.521 56.5244C221.521 56.6839 221.571 56.8275 221.671 56.9551C221.771 57.0872 221.928 57.1966 222.143 57.2832C222.266 57.3288 222.628 57.4336 223.229 57.5977C224.1 57.8301 224.706 58.0215 225.048 58.1719C225.394 58.3177 225.665 58.5319 225.861 58.8145C226.057 59.097 226.155 59.4479 226.155 59.8672C226.155 60.2773 226.035 60.6647 225.793 61.0293C225.556 61.3893 225.212 61.6696 224.761 61.8701C224.31 62.0661 223.799 62.1641 223.229 62.1641C222.286 62.1641 221.566 61.9681 221.069 61.5762C220.577 61.1842 220.263 60.6032 220.126 59.833ZM227.126 59.833L228.343 59.6416C228.411 60.1292 228.6 60.5029 228.91 60.7627C229.225 61.0225 229.662 61.1523 230.223 61.1523C230.788 61.1523 231.207 61.0384 231.48 60.8105C231.754 60.5781 231.891 60.307 231.891 59.9971C231.891 59.7191 231.77 59.5003 231.528 59.3408C231.36 59.2314 230.94 59.0924 230.271 58.9238C229.368 58.696 228.742 58.5 228.391 58.3359C228.044 58.1673 227.78 57.9372 227.598 57.6455C227.42 57.3493 227.331 57.0234 227.331 56.668C227.331 56.3444 227.404 56.0459 227.55 55.7725C227.7 55.4945 227.903 55.2643 228.158 55.082C228.35 54.9408 228.609 54.8223 228.938 54.7266C229.27 54.6263 229.626 54.5762 230.004 54.5762C230.574 54.5762 231.073 54.6582 231.501 54.8223C231.934 54.9863 232.253 55.2096 232.458 55.4922C232.663 55.7702 232.804 56.1439 232.882 56.6133L231.679 56.7773C231.624 56.4036 231.465 56.112 231.2 55.9023C230.94 55.6927 230.571 55.5879 230.093 55.5879C229.528 55.5879 229.124 55.6813 228.883 55.8682C228.641 56.055 228.521 56.2738 228.521 56.5244C228.521 56.6839 228.571 56.8275 228.671 56.9551C228.771 57.0872 228.928 57.1966 229.143 57.2832C229.266 57.3288 229.628 57.4336 230.229 57.5977C231.1 57.8301 231.706 58.0215 232.048 58.1719C232.394 58.3177 232.665 58.5319 232.861 58.8145C233.057 59.097 233.155 59.4479 233.155 59.8672C233.155 60.2773 233.035 60.6647 232.793 61.0293C232.556 61.3893 232.212 61.6696 231.761 61.8701C231.31 62.0661 230.799 62.1641 230.229 62.1641C229.286 62.1641 228.566 61.9681 228.069 61.5762C227.577 61.1842 227.263 60.6032 227.126 59.833ZM241.201 60.8994L241.379 61.9863C241.033 62.0592 240.723 62.0957 240.449 62.0957C240.003 62.0957 239.656 62.0251 239.41 61.8838C239.164 61.7425 238.991 61.5579 238.891 61.3301C238.79 61.0977 238.74 60.6123 238.74 59.874V55.6973H237.838V54.7402H238.74V52.9424L239.964 52.2041V54.7402H241.201V55.6973H239.964V59.9424C239.964 60.2933 239.984 60.5189 240.025 60.6191C240.071 60.7194 240.142 60.7992 240.237 60.8584C240.338 60.9176 240.479 60.9473 240.661 60.9473C240.798 60.9473 240.978 60.9313 241.201 60.8994ZM241.953 58.3701C241.953 57.0257 242.327 56.0299 243.074 55.3828C243.699 54.8451 244.46 54.5762 245.357 54.5762C246.355 54.5762 247.171 54.9043 247.805 55.5605C248.438 56.2122 248.755 57.1146 248.755 58.2676C248.755 59.2018 248.614 59.9378 248.331 60.4756C248.053 61.0088 247.645 61.4235 247.107 61.7197C246.574 62.016 245.991 62.1641 245.357 62.1641C244.341 62.1641 243.519 61.8382 242.89 61.1865C242.265 60.5348 241.953 59.596 241.953 58.3701ZM243.218 58.3701C243.218 59.2998 243.421 59.9971 243.826 60.4619C244.232 60.9222 244.742 61.1523 245.357 61.1523C245.968 61.1523 246.476 60.9199 246.882 60.4551C247.287 59.9902 247.49 59.2816 247.49 58.3291C247.49 57.4313 247.285 56.7523 246.875 56.292C246.469 55.8271 245.964 55.5947 245.357 55.5947C244.742 55.5947 244.232 55.8249 243.826 56.2852C243.421 56.7454 243.218 57.4404 243.218 58.3701ZM256.787 60.8994L256.965 61.9863C256.618 62.0592 256.309 62.0957 256.035 62.0957C255.589 62.0957 255.242 62.0251 254.996 61.8838C254.75 61.7425 254.577 61.5579 254.477 61.3301C254.376 61.0977 254.326 60.6123 254.326 59.874V55.6973H253.424V54.7402H254.326V52.9424L255.55 52.2041V54.7402H256.787V55.6973H255.55V59.9424C255.55 60.2933 255.57 60.5189 255.611 60.6191C255.657 60.7194 255.728 60.7992 255.823 60.8584C255.924 60.9176 256.065 60.9473 256.247 60.9473C256.384 60.9473 256.564 60.9313 256.787 60.8994ZM262.967 59.6621L264.238 59.8193C264.038 60.5622 263.666 61.1387 263.124 61.5488C262.582 61.959 261.889 62.1641 261.046 62.1641C259.984 62.1641 259.141 61.8382 258.517 61.1865C257.897 60.5303 257.587 59.612 257.587 58.4316C257.587 57.2103 257.901 56.2624 258.53 55.5879C259.159 54.9134 259.975 54.5762 260.978 54.5762C261.948 54.5762 262.741 54.9066 263.356 55.5674C263.972 56.2282 264.279 57.1579 264.279 58.3564C264.279 58.4294 264.277 58.5387 264.272 58.6846H258.858C258.904 59.4821 259.13 60.0928 259.535 60.5166C259.941 60.9404 260.447 61.1523 261.053 61.1523C261.504 61.1523 261.889 61.0339 262.208 60.7969C262.527 60.5599 262.78 60.1816 262.967 59.6621ZM258.927 57.6729H262.98C262.926 57.0622 262.771 56.6042 262.516 56.2988C262.124 55.8249 261.616 55.5879 260.991 55.5879C260.426 55.5879 259.95 55.777 259.562 56.1553C259.18 56.5335 258.968 57.0394 258.927 57.6729ZM270.527 59.3408L271.737 59.498C271.605 60.332 271.266 60.986 270.719 61.46C270.176 61.9294 269.509 62.1641 268.716 62.1641C267.722 62.1641 266.923 61.8405 266.316 61.1934C265.715 60.5417 265.414 59.6097 265.414 58.3975C265.414 57.6136 265.544 56.9277 265.804 56.3398C266.063 55.752 266.458 55.3122 266.986 55.0205C267.52 54.7243 268.098 54.5762 268.723 54.5762C269.511 54.5762 270.156 54.7767 270.657 55.1777C271.159 55.5742 271.48 56.1393 271.621 56.873L270.425 57.0576C270.311 56.57 270.108 56.2031 269.816 55.957C269.529 55.7109 269.181 55.5879 268.771 55.5879C268.151 55.5879 267.647 55.8112 267.26 56.2578C266.872 56.6999 266.679 57.4017 266.679 58.3633C266.679 59.3385 266.866 60.0472 267.239 60.4893C267.613 60.9313 268.101 61.1523 268.702 61.1523C269.185 61.1523 269.589 61.0042 269.912 60.708C270.236 60.4118 270.441 59.9561 270.527 59.3408ZM272.79 62V51.9785H274.021V55.5742C274.595 54.9089 275.319 54.5762 276.194 54.5762C276.732 54.5762 277.199 54.6833 277.596 54.8975C277.992 55.1071 278.275 55.3988 278.443 55.7725C278.617 56.1462 278.703 56.6885 278.703 57.3994V62H277.473V57.3994C277.473 56.7842 277.338 56.3376 277.069 56.0596C276.805 55.777 276.429 55.6357 275.941 55.6357C275.577 55.6357 275.233 55.7314 274.909 55.9229C274.59 56.1097 274.362 56.3649 274.226 56.6885C274.089 57.012 274.021 57.4587 274.021 58.0283V62H272.79ZM280.583 62V54.7402H281.69V55.7725C282.224 54.9749 282.994 54.5762 284.001 54.5762C284.438 54.5762 284.84 54.6559 285.204 54.8154C285.573 54.9704 285.849 55.1755 286.031 55.4307C286.214 55.6859 286.341 55.9889 286.414 56.3398C286.46 56.5677 286.482 56.9665 286.482 57.5361V62H285.252V57.584C285.252 57.0827 285.204 56.709 285.108 56.4629C285.013 56.2122 284.842 56.014 284.596 55.8682C284.354 55.7178 284.069 55.6426 283.741 55.6426C283.217 55.6426 282.764 55.8089 282.381 56.1416C282.003 56.4743 281.813 57.1055 281.813 58.0352V62H280.583ZM287.918 58.3701C287.918 57.0257 288.292 56.0299 289.039 55.3828C289.663 54.8451 290.424 54.5762 291.322 54.5762C292.32 54.5762 293.136 54.9043 293.77 55.5605C294.403 56.2122 294.72 57.1146 294.72 58.2676C294.72 59.2018 294.578 59.9378 294.296 60.4756C294.018 61.0088 293.61 61.4235 293.072 61.7197C292.539 62.016 291.956 62.1641 291.322 62.1641C290.306 62.1641 289.483 61.8382 288.854 61.1865C288.23 60.5348 287.918 59.596 287.918 58.3701ZM289.183 58.3701C289.183 59.2998 289.385 59.9971 289.791 60.4619C290.197 60.9222 290.707 61.1523 291.322 61.1523C291.933 61.1523 292.441 60.9199 292.847 60.4551C293.252 59.9902 293.455 59.2816 293.455 58.3291C293.455 57.4313 293.25 56.7523 292.84 56.292C292.434 55.8271 291.928 55.5947 291.322 55.5947C290.707 55.5947 290.197 55.8249 289.791 56.2852C289.385 56.7454 289.183 57.4404 289.183 58.3701ZM296.142 62V51.9785H297.372V62H296.142ZM298.828 58.3701C298.828 57.0257 299.202 56.0299 299.949 55.3828C300.574 54.8451 301.335 54.5762 302.232 54.5762C303.23 54.5762 304.046 54.9043 304.68 55.5605C305.313 56.2122 305.63 57.1146 305.63 58.2676C305.63 59.2018 305.489 59.9378 305.206 60.4756C304.928 61.0088 304.52 61.4235 303.982 61.7197C303.449 62.016 302.866 62.1641 302.232 62.1641C301.216 62.1641 300.394 61.8382 299.765 61.1865C299.14 60.5348 298.828 59.596 298.828 58.3701ZM300.093 58.3701C300.093 59.2998 300.296 59.9971 300.701 60.4619C301.107 60.9222 301.617 61.1523 302.232 61.1523C302.843 61.1523 303.351 60.9199 303.757 60.4551C304.162 59.9902 304.365 59.2816 304.365 58.3291C304.365 57.4313 304.16 56.7523 303.75 56.292C303.344 55.8271 302.839 55.5947 302.232 55.5947C301.617 55.5947 301.107 55.8249 300.701 56.2852C300.296 56.7454 300.093 57.4404 300.093 58.3701ZM306.854 62.6016L308.05 62.7793C308.1 63.1484 308.239 63.4173 308.467 63.5859C308.772 63.8138 309.189 63.9277 309.718 63.9277C310.287 63.9277 310.727 63.8138 311.037 63.5859C311.347 63.3581 311.557 63.0391 311.666 62.6289C311.73 62.3783 311.759 61.8519 311.755 61.0498C311.217 61.6833 310.547 62 309.745 62C308.747 62 307.975 61.64 307.428 60.9199C306.881 60.1999 306.607 59.3363 306.607 58.3291C306.607 57.6364 306.733 56.9984 306.983 56.415C307.234 55.8271 307.596 55.3737 308.07 55.0547C308.549 54.7357 309.109 54.5762 309.752 54.5762C310.609 54.5762 311.315 54.9225 311.871 55.6152V54.7402H313.006V61.0156C313.006 62.1458 312.89 62.9456 312.657 63.415C312.429 63.889 312.065 64.2627 311.563 64.5361C311.067 64.8096 310.454 64.9463 309.725 64.9463C308.859 64.9463 308.159 64.7503 307.626 64.3584C307.093 63.971 306.835 63.3854 306.854 62.6016ZM307.872 58.2402C307.872 59.1927 308.061 59.8877 308.439 60.3252C308.818 60.7627 309.292 60.9814 309.861 60.9814C310.426 60.9814 310.9 60.765 311.283 60.332C311.666 59.8945 311.857 59.2109 311.857 58.2812C311.857 57.3926 311.659 56.7227 311.263 56.2715C310.871 55.8203 310.397 55.5947 309.841 55.5947C309.294 55.5947 308.829 55.818 308.446 56.2646C308.063 56.7067 307.872 57.3652 307.872 58.2402ZM314.817 64.7959L314.681 63.6406C314.95 63.7135 315.184 63.75 315.385 63.75C315.658 63.75 315.877 63.7044 316.041 63.6133C316.205 63.5221 316.34 63.3945 316.444 63.2305C316.522 63.1074 316.647 62.8021 316.82 62.3145C316.843 62.2461 316.88 62.1458 316.93 62.0137L314.175 54.7402H315.501L317.012 58.9443C317.208 59.4775 317.383 60.0381 317.538 60.626C317.679 60.0609 317.848 59.5094 318.044 58.9717L319.596 54.7402H320.826L318.064 62.123C317.768 62.9206 317.538 63.4697 317.374 63.7705C317.155 64.1761 316.905 64.4723 316.622 64.6592C316.34 64.8506 316.002 64.9463 315.61 64.9463C315.373 64.9463 315.109 64.8962 314.817 64.7959Z" fill="white"/>
</svg>
